<svg width="50" height="46" viewBox="0 0 50 46" fill="none" xmlns="http://www.w3.org/2000/svg">
<path fill-rule="evenodd" clip-rule="evenodd" d="M6 0.218262H2H0V2.21826V43.3644V45.3644H2H6V43.3644H2V2.21826H6V0.218262ZM44 43.3644H48V2.21826H44V0.218262H48H50V2.21826V43.3644V45.3644H48H44V43.3644Z" fill="#61AFA1"/>
<path d="M13.5714 4.79132C9.94857 4.79132 7 7.73989 7 11.3627C7 11.837 7.38286 12.2199 7.85714 12.2199C8.33143 12.2199 8.71429 11.837 8.71429 11.3627C8.71429 8.68561 10.8943 6.50561 13.5714 6.50561H36.4286C39.1057 6.50561 41.2857 8.68561 41.2857 11.3627V14.5056C41.2857 14.9799 41.6686 15.3628 42.1429 15.3628C42.6171 15.3628 43 14.9799 43 14.5056V11.3627C43 7.73989 40.0514 4.79132 36.4286 4.79132H13.5714ZM16.7143 10.2199C14.8229 10.2199 13.2857 11.757 13.2857 13.6485C13.2857 14.2827 13.4628 14.8771 13.7628 15.3856L11.5028 17.6485H7.85714C7.38286 17.6485 7 18.0313 7 18.5056C7 18.9799 7.38286 19.3628 7.85714 19.3628H11.8571C12.0857 19.3628 12.3026 19.2711 12.4626 19.1111L14.9771 16.5971C15.4857 16.9 16.08 17.077 16.7143 17.077C18.6057 17.077 20.1429 15.5399 20.1429 13.6485C20.1429 11.757 18.6057 10.2199 16.7143 10.2199ZM16.7143 11.9342C17.66 11.9342 18.4286 12.7027 18.4286 13.6485C18.4286 14.5942 17.66 15.3628 16.7143 15.3628C15.7686 15.3628 15 14.5942 15 13.6485C15 12.7027 15.7686 11.9342 16.7143 11.9342ZM37.8571 17.6485C35.0229 17.6485 32.7143 19.9542 32.7143 22.7913C32.7143 25.6285 35.0229 27.9342 37.8571 27.9342H42.1429C42.6171 27.9342 43 27.5513 43 27.077V18.5056C43 18.0313 42.6171 17.6485 42.1429 17.6485H37.8571ZM26.1429 19.3628C24.5486 19.3628 23.2087 20.457 22.8259 21.9342H7.85714C7.38286 21.9342 7 22.317 7 22.7913C7 23.2656 7.38286 23.6485 7.85714 23.6485H22.8259C23.2087 25.1256 24.5486 26.2199 26.1429 26.2199C28.0343 26.2199 29.5714 24.6828 29.5714 22.7913C29.5714 20.8999 28.0343 19.3628 26.1429 19.3628ZM37.8571 19.3628H41.2857V26.2199H37.8571C35.9657 26.2199 34.4286 24.6828 34.4286 22.7913C34.4286 20.8999 35.9657 19.3628 37.8571 19.3628ZM26.1429 21.077C27.0886 21.077 27.8571 21.8456 27.8571 22.7913C27.8571 23.737 27.0886 24.5056 26.1429 24.5056C25.1971 24.5056 24.4286 23.737 24.4286 22.7913C24.4286 21.8456 25.1971 21.077 26.1429 21.077ZM7.85714 26.2199C7.38286 26.2199 7 26.6028 7 27.077C7 27.5513 7.38286 27.9342 7.85714 27.9342H9.50279L14.1088 32.5396C14.2688 32.6996 14.4857 32.7913 14.7143 32.7913H16.2545C16.6373 34.2685 17.9771 35.3628 19.5714 35.3628C21.4629 35.3628 23 33.8256 23 31.9342C23 30.0427 21.4629 28.5056 19.5714 28.5056C17.9771 28.5056 16.6373 29.5999 16.2545 31.077H15.0686L10.4626 26.4716C10.3026 26.3116 10.0857 26.2199 9.85714 26.2199H7.85714ZM19.5714 30.2199C20.5171 30.2199 21.2857 30.9885 21.2857 31.9342C21.2857 32.8799 20.5171 33.6485 19.5714 33.6485C18.6257 33.6485 17.8571 32.8799 17.8571 31.9342C17.8571 30.9885 18.6257 30.2199 19.5714 30.2199ZM42.1429 30.2199C41.6686 30.2199 41.2857 30.6028 41.2857 31.077V34.2199C41.2857 36.897 39.1057 39.077 36.4286 39.077H13.5714C10.8943 39.077 8.71429 36.897 8.71429 34.2199C8.71429 33.7456 8.33143 33.3628 7.85714 33.3628C7.38286 33.3628 7 33.7456 7 34.2199C7 37.8428 9.94857 40.7913 13.5714 40.7913H36.4286C40.0514 40.7913 43 37.8428 43 34.2199V31.077C43 30.6028 42.6171 30.2199 42.1429 30.2199Z" fill="#61AFA1"/>
</svg>
