<svg width="36" height="37" viewBox="0 0 36 37" fill="none" xmlns="http://www.w3.org/2000/svg">
<path d="M6.57143 0.791321C2.94857 0.791321 0 3.73989 0 7.36275C0 7.83704 0.382857 8.21989 0.857143 8.21989C1.33143 8.21989 1.71429 7.83704 1.71429 7.36275C1.71429 4.68561 3.89429 2.50561 6.57143 2.50561H29.4286C32.1057 2.50561 34.2857 4.68561 34.2857 7.36275V10.5056C34.2857 10.9799 34.6686 11.3628 35.1429 11.3628C35.6171 11.3628 36 10.9799 36 10.5056V7.36275C36 3.73989 33.0514 0.791321 29.4286 0.791321H6.57143ZM9.71429 6.21989C7.82286 6.21989 6.28571 7.75704 6.28571 9.64846C6.28571 10.2827 6.46283 10.8771 6.76284 11.3856L4.50279 13.6485H0.857143C0.382857 13.6485 0 14.0313 0 14.5056C0 14.9799 0.382857 15.3628 0.857143 15.3628H4.85714C5.08571 15.3628 5.30261 15.2711 5.46261 15.1111L7.97712 12.5971C8.48569 12.9 9.08 13.077 9.71429 13.077C11.6057 13.077 13.1429 11.5399 13.1429 9.64846C13.1429 7.75704 11.6057 6.21989 9.71429 6.21989ZM9.71429 7.93418C10.66 7.93418 11.4286 8.70275 11.4286 9.64846C11.4286 10.5942 10.66 11.3628 9.71429 11.3628C8.76857 11.3628 8 10.5942 8 9.64846C8 8.70275 8.76857 7.93418 9.71429 7.93418ZM30.8571 13.6485C28.0229 13.6485 25.7143 15.9542 25.7143 18.7913C25.7143 21.6285 28.0229 23.9342 30.8571 23.9342H35.1429C35.6171 23.9342 36 23.5513 36 23.077V14.5056C36 14.0313 35.6171 13.6485 35.1429 13.6485H30.8571ZM19.1429 15.3628C17.5486 15.3628 16.2087 16.457 15.8259 17.9342H0.857143C0.382857 17.9342 0 18.317 0 18.7913C0 19.2656 0.382857 19.6485 0.857143 19.6485H15.8259C16.2087 21.1256 17.5486 22.2199 19.1429 22.2199C21.0343 22.2199 22.5714 20.6828 22.5714 18.7913C22.5714 16.8999 21.0343 15.3628 19.1429 15.3628ZM30.8571 15.3628H34.2857V22.2199H30.8571C28.9657 22.2199 27.4286 20.6828 27.4286 18.7913C27.4286 16.8999 28.9657 15.3628 30.8571 15.3628ZM19.1429 17.077C20.0886 17.077 20.8571 17.8456 20.8571 18.7913C20.8571 19.737 20.0886 20.5056 19.1429 20.5056C18.1971 20.5056 17.4286 19.737 17.4286 18.7913C17.4286 17.8456 18.1971 17.077 19.1429 17.077ZM0.857143 22.2199C0.382857 22.2199 0 22.6028 0 23.077C0 23.5513 0.382857 23.9342 0.857143 23.9342H2.50279L7.10882 28.5396C7.26882 28.6996 7.48571 28.7913 7.71429 28.7913H9.25446C9.63732 30.2685 10.9771 31.3628 12.5714 31.3628C14.4629 31.3628 16 29.8256 16 27.9342C16 26.0427 14.4629 24.5056 12.5714 24.5056C10.9771 24.5056 9.63732 25.5999 9.25446 27.077H8.06864L3.46261 22.4716C3.30261 22.3116 3.08571 22.2199 2.85714 22.2199H0.857143ZM12.5714 26.2199C13.5171 26.2199 14.2857 26.9885 14.2857 27.9342C14.2857 28.8799 13.5171 29.6485 12.5714 29.6485C11.6257 29.6485 10.8571 28.8799 10.8571 27.9342C10.8571 26.9885 11.6257 26.2199 12.5714 26.2199ZM35.1429 26.2199C34.6686 26.2199 34.2857 26.6028 34.2857 27.077V30.2199C34.2857 32.897 32.1057 35.077 29.4286 35.077H6.57143C3.89429 35.077 1.71429 32.897 1.71429 30.2199C1.71429 29.7456 1.33143 29.3628 0.857143 29.3628C0.382857 29.3628 0 29.7456 0 30.2199C0 33.8428 2.94857 36.7913 6.57143 36.7913H29.4286C33.0514 36.7913 36 33.8428 36 30.2199V27.077C36 26.6028 35.6171 26.2199 35.1429 26.2199Z" fill="#61AFA1"/>
</svg>
