<svg width="160" height="160" viewBox="0 0 160 160" fill="none" xmlns="http://www.w3.org/2000/svg">
<path d="M72.5 17.5H87.5V22.5H72.5V17.5ZM72.5 27.5H87.5V32.5H72.5V27.5Z" fill="#2EECC0"/>
<path d="M155 82.5C155.002 82.0966 154.907 81.6986 154.722 81.34L128.193 30.7075C129.033 29.5104 129.599 28.1433 129.853 26.7029C130.106 25.2625 130.039 23.7841 129.658 22.3722C129.277 20.9603 128.59 19.6495 127.646 18.5326C126.702 17.4156 125.524 16.5198 124.195 15.9085C122.866 15.2971 121.42 14.9853 119.957 14.995C118.495 15.0047 117.052 15.3356 115.732 15.9645C114.412 16.5933 113.246 17.5047 112.316 18.6341C111.387 19.7634 110.718 21.0832 110.355 22.5H99.8275C99.2222 17.6683 96.8734 13.2239 93.2224 10.0018C89.5714 6.77967 84.8695 5.00159 80 5.00159C75.1305 5.00159 70.4286 6.77967 66.7776 10.0018C63.1266 13.2239 60.7778 17.6683 60.1725 22.5H49.645C49.2824 21.0832 48.6128 19.7634 47.6836 18.6341C46.7544 17.5047 45.5884 16.5933 44.268 15.9645C42.9477 15.3356 41.5052 15.0047 40.0428 14.995C38.5803 14.9853 37.1336 15.2971 35.8051 15.9085C34.4765 16.5198 33.2985 17.4156 32.3544 18.5326C31.4104 19.6495 30.7234 20.9603 30.342 22.3722C29.9606 23.7841 29.8942 25.2625 30.1475 26.7029C30.4007 28.1433 30.9674 29.5104 31.8075 30.7075L5.285 81.34C5.09766 81.698 4.99987 82.096 5 82.5V82.6025C5 91.8851 8.68749 100.787 15.2513 107.351C21.815 113.915 30.7174 117.603 40 117.603C49.2826 117.603 58.185 113.915 64.7487 107.351C71.3125 100.787 75 91.8851 75 82.6025V82.5C75.0024 82.0966 74.9072 81.6986 74.7225 81.34L48.1925 30.7075C48.8634 29.7331 49.3552 28.647 49.645 27.5H60.1725C60.7334 31.8996 62.7393 35.9884 65.8755 39.1245C69.0116 42.2607 73.1004 44.2666 77.5 44.8275V120H70C69.337 120 68.7011 120.263 68.2322 120.732C67.7634 121.201 67.5 121.837 67.5 122.5V130H61.25C60.7176 129.999 60.1988 130.169 59.7694 130.484C59.34 130.798 59.0222 131.242 58.8625 131.75L52.6125 151.75C52.4947 152.125 52.4668 152.522 52.5311 152.909C52.5954 153.297 52.75 153.664 52.9826 153.98C53.2151 154.297 53.5189 154.554 53.8694 154.731C54.2199 154.908 54.6072 155 55 155H105C105.393 155 105.78 154.908 106.131 154.731C106.481 154.554 106.785 154.297 107.017 153.98C107.25 153.664 107.405 153.297 107.469 152.909C107.533 152.522 107.505 152.125 107.388 151.75L101.138 131.75C100.978 131.242 100.66 130.798 100.231 130.484C99.8012 130.169 99.2824 129.999 98.75 130H92.5V122.5C92.5 121.837 92.2366 121.201 91.7678 120.732C91.2989 120.263 90.663 120 90 120H82.5V44.8275C86.8996 44.2666 90.9884 42.2607 94.1245 39.1245C97.2607 35.9884 99.2666 31.8996 99.8275 27.5H110.355C110.645 28.647 111.137 29.7331 111.807 30.7075L85.285 81.34C85.0977 81.698 84.9999 82.096 85 82.5V82.6025C85 91.8851 88.6875 100.787 95.2513 107.351C101.815 113.915 110.717 117.603 120 117.603C129.283 117.603 138.185 113.915 144.749 107.351C151.313 100.787 155 91.8851 155 82.6025V82.5ZM101.6 150H58.4L63.0875 135H96.9125L101.6 150ZM87.5 130H72.5V125H87.5V130ZM120 20C120.989 20 121.956 20.2933 122.778 20.8427C123.6 21.3921 124.241 22.173 124.619 23.0866C124.998 24.0002 125.097 25.0056 124.904 25.9755C124.711 26.9454 124.235 27.8363 123.536 28.5356C122.836 29.2348 121.945 29.711 120.975 29.904C120.006 30.0969 119 29.9979 118.087 29.6194C117.173 29.241 116.392 28.6001 115.843 27.7779C115.293 26.9556 115 25.9889 115 25C115 23.6739 115.527 22.4022 116.464 21.4645C117.402 20.5268 118.674 20 120 20ZM40 20C40.9889 20 41.9556 20.2933 42.7779 20.8427C43.6001 21.3921 44.241 22.173 44.6194 23.0866C44.9978 24.0002 45.0969 25.0056 44.9039 25.9755C44.711 26.9454 44.2348 27.8363 43.5355 28.5356C42.8363 29.2348 41.9454 29.711 40.9755 29.904C40.0055 30.0969 39.0002 29.9979 38.0866 29.6194C37.173 29.241 36.3921 28.6001 35.8427 27.7779C35.2932 26.9556 35 25.9889 35 25C35 23.6739 35.5268 22.4022 36.4645 21.4645C37.4021 20.5268 38.6739 20 40 20ZM69.8725 85C69.2582 92.5013 65.8445 99.497 60.3097 104.597C54.7748 109.697 47.5239 112.529 39.9975 112.529C32.4711 112.529 25.2202 109.697 19.6853 104.597C14.1505 99.497 10.7368 92.5013 10.1225 85H17.5V80H11.6325L35.725 34C37.0546 34.6562 38.5173 34.9975 40 34.9975C41.4827 34.9975 42.9454 34.6562 44.275 34L68.3675 80H62.5V85H69.8725ZM80 40C77.0333 40 74.1332 39.1203 71.6664 37.4721C69.1997 35.8238 67.2771 33.4812 66.1418 30.7403C65.0065 27.9994 64.7094 24.9834 65.2882 22.0737C65.867 19.164 67.2956 16.4912 69.3934 14.3934C71.4912 12.2956 74.1639 10.867 77.0736 10.2882C79.9834 9.70947 82.9994 10.0065 85.7403 11.1418C88.4811 12.2771 90.8238 14.1997 92.472 16.6665C94.1203 19.1332 95 22.0333 95 25C94.996 28.9771 93.4144 32.7901 90.6022 35.6022C87.79 38.4144 83.977 39.9961 80 40ZM120 112.5C112.482 112.489 105.241 109.658 99.71 104.566C94.1787 99.4737 90.7592 92.4917 90.1275 85H102.5V80H91.6325L115.725 34C117.055 34.6562 118.517 34.9975 120 34.9975C121.483 34.9975 122.945 34.6562 124.275 34L148.368 80H137.5V85H149.873C149.241 92.4917 145.821 99.4737 140.29 104.566C134.759 109.658 127.518 112.489 120 112.5Z" fill="#2EECC0"/>
<path d="M55.985 71.63L40.985 65.2025C40.6735 65.0701 40.3385 65.0018 40 65.0018C39.6615 65.0018 39.3265 65.0701 39.015 65.2025L24.015 71.63C23.5654 71.8227 23.1822 72.1431 22.9129 72.5515C22.6436 72.9599 22.5001 73.4383 22.5 73.9275V91.0725C22.5001 91.5617 22.6436 92.0401 22.9129 92.4485C23.1822 92.8569 23.5654 93.1773 24.015 93.37L39.015 99.7975C39.3262 99.9309 39.6614 99.9997 40 99.9997C40.3386 99.9997 40.6737 99.9309 40.985 99.7975L55.985 93.37C56.4346 93.1773 56.8178 92.8569 57.0871 92.4485C57.3564 92.0401 57.4999 91.5617 57.5 91.0725V73.9275C57.4999 73.4383 57.3564 72.9599 57.0871 72.5515C56.8178 72.1431 56.4346 71.8227 55.985 71.63ZM40 70.22L48.655 73.9275L40 77.6375L31.345 73.9275L40 70.22ZM27.5 77.72L37.5 82V93.705L27.5 89.425V77.72ZM42.5 93.72V82L52.5 77.715V89.425L42.5 93.72ZM127.5 76.25H132.5C132.321 73.7687 131.17 71.4581 129.298 69.8199C127.426 68.1817 124.983 67.3481 122.5 67.5V62.5H117.5V67.5C115.017 67.3481 112.574 68.1817 110.702 69.8199C108.83 71.4581 107.679 73.7687 107.5 76.25C107.679 78.7313 108.83 81.0419 110.702 82.6801C112.574 84.3183 115.017 85.1519 117.5 85V92.5C114.79 92.5 112.5 90.7825 112.5 88.75H107.5C107.679 91.2313 108.83 93.5419 110.702 95.1801C112.574 96.8183 115.017 97.6519 117.5 97.5V102.5H122.5V97.5C124.983 97.6519 127.426 96.8183 129.298 95.1801C131.17 93.5419 132.321 91.2313 132.5 88.75C132.321 86.2687 131.17 83.9581 129.298 82.3199C127.426 80.6817 124.983 79.8481 122.5 80V72.5C125.21 72.5 127.5 74.2175 127.5 76.25ZM127.5 88.75C127.5 90.7825 125.21 92.5 122.5 92.5V85C125.21 85 127.5 86.7175 127.5 88.75ZM117.5 80C114.79 80 112.5 78.2825 112.5 76.25C112.5 74.2175 114.79 72.5 117.5 72.5V80Z" fill="#2EECC0"/>
</svg>
