<svg width="33" height="32" viewBox="0 0 33 32" fill="none" xmlns="http://www.w3.org/2000/svg">
<g clip-path="url(#clip0_2_153)">
<path d="M32.0712 15.424C32.0291 15.424 31.9875 15.4278 31.9459 15.4336C31.6061 15.336 30.7139 14.9536 29.2483 13.4896C28.9832 13.2254 28.6806 13.0018 28.3501 12.8262C28.5437 12.5115 28.6915 12.1702 28.7891 11.8128C29.3224 9.81817 29.9021 9.0395 30.1464 8.78297C30.2067 8.75897 30.2355 8.74403 30.2355 8.74403C30.3635 8.66723 30.4563 8.5435 30.4936 8.3995C30.5324 8.25297 30.5133 8.09713 30.4403 7.9643C30.3701 7.8417 30.2541 7.75195 30.1178 7.71475C29.9815 7.67756 29.8361 7.69595 29.7133 7.7659C29.6771 7.78723 29.6424 7.8107 29.6099 7.83737C29.2723 7.92217 28.3117 8.04217 26.3032 7.50617C25.9403 7.40937 25.5649 7.36731 25.1896 7.38137C25.2021 7.01147 25.1596 6.64176 25.0637 6.2843C24.5304 4.27363 24.6477 3.3131 24.7325 2.97763C24.7587 2.94563 24.7821 2.91097 24.8029 2.87523C24.868 2.74608 24.8801 2.59661 24.8365 2.4587C24.7918 2.31758 24.6957 2.19842 24.5672 2.12483C24.5043 2.0902 24.435 2.06849 24.3636 2.06098C24.2922 2.05347 24.22 2.06031 24.1512 2.0811C24.0821 2.10189 24.0177 2.13615 23.9619 2.18192C23.906 2.22769 23.8598 2.28405 23.8259 2.34777C23.8259 2.34777 23.8109 2.37657 23.7869 2.43577C23.5299 2.68057 22.7517 3.2587 20.7565 3.79363C20.3948 3.89199 20.0497 4.04351 19.7325 4.24323C19.5574 3.91716 19.3359 3.61822 19.0749 3.35577C17.6093 1.89017 17.2285 0.997899 17.1304 0.658699C17.1357 0.617099 17.1384 0.575499 17.1379 0.533366C17.1282 0.387698 17.0631 0.251262 16.956 0.152076C16.8489 0.0528904 16.7078 -0.00151527 16.5619 3.21247e-05C16.4204 3.21247e-05 16.2848 0.0562225 16.1847 0.156242C16.0847 0.256261 16.0285 0.391917 16.0285 0.533366C16.0285 0.575499 16.0323 0.617632 16.0381 0.659232C15.9405 0.998432 15.5581 1.8907 14.0941 3.3563C13.8299 3.62144 13.6062 3.92407 13.4301 4.25443C13.1151 4.06039 12.7738 3.91257 12.4168 3.8155C10.4221 3.28217 9.64346 2.70243 9.38746 2.45763C9.36346 2.39843 9.34853 2.36963 9.34853 2.36963C9.27213 2.24182 9.14859 2.14913 9.00453 2.1115C8.85815 2.07295 8.70257 2.09204 8.56986 2.16483C8.50882 2.19954 8.45524 2.24596 8.41219 2.30143C8.36914 2.35689 8.33746 2.42031 8.31898 2.48805C8.3005 2.55579 8.29557 2.62651 8.30449 2.69615C8.3134 2.7658 8.33598 2.833 8.37093 2.8939C8.39226 2.92963 8.41573 2.9643 8.44186 2.99683C8.52666 3.3323 8.64613 4.29177 8.11066 6.3035C8.01407 6.66628 7.97201 7.04141 7.98586 7.41657C7.61579 7.40413 7.24591 7.44655 6.88826 7.54243C4.85092 8.08537 3.90159 7.9563 3.57572 7.87097C3.54415 7.84595 3.51102 7.82297 3.47652 7.80217C3.34548 7.73918 3.19537 7.72844 3.05668 7.77212C2.918 7.81581 2.80115 7.91064 2.72986 8.03737C2.69488 8.10036 2.67289 8.16972 2.66519 8.24136C2.6575 8.313 2.66425 8.38545 2.68506 8.45443C2.71031 8.53879 2.75554 8.6158 2.81691 8.67894C2.87828 8.74208 2.95399 8.78947 3.03759 8.8171C3.27972 9.06883 3.85999 9.8427 4.39812 11.8491C4.49643 12.211 4.64795 12.5563 4.84772 12.8736C4.5215 13.0485 4.22253 13.2701 3.96026 13.5312C2.52772 14.9648 1.64292 15.36 1.26319 15.4763C1.22167 15.4703 1.1798 15.4671 1.13786 15.4667C0.99219 15.4764 0.855754 15.5414 0.756568 15.6486C0.657383 15.7557 0.602977 15.8967 0.604524 16.0427C0.604524 16.1842 0.660715 16.3198 0.760734 16.4198C0.860753 16.5198 0.996409 16.576 1.13786 16.576C1.17999 16.576 1.22212 16.5723 1.26372 16.5664C1.60346 16.6646 2.49572 17.0464 3.96079 18.5104C4.22581 18.7747 4.52846 18.9983 4.85892 19.1739C4.66508 19.489 4.51727 19.8303 4.41999 20.1872C3.88666 22.1819 3.30692 22.9606 3.06266 23.2171C3.03241 23.2288 3.00269 23.2418 2.97359 23.256C2.84559 23.3328 2.75279 23.4566 2.71546 23.6006C2.67652 23.7472 2.69572 23.903 2.76879 24.0358C2.83898 24.1584 2.95494 24.2481 3.09122 24.2853C3.22751 24.3225 3.37299 24.3041 3.49572 24.2342C3.53199 24.2128 3.56666 24.1894 3.59919 24.1627C3.93679 24.0779 4.89732 23.9584 6.90586 24.4939C7.22906 24.5819 7.56293 24.6272 7.89786 24.6278C7.93839 24.6278 7.97839 24.6219 8.01946 24.6203C8.00696 24.9897 8.04938 25.3589 8.14533 25.7158C8.68773 27.7526 8.55866 28.7024 8.47386 29.0288C8.44933 29.0598 8.42693 29.0928 8.40613 29.1264C8.34105 29.2556 8.32899 29.4051 8.37253 29.543C8.41679 29.6838 8.51173 29.8027 8.63919 29.8768C8.71784 29.921 8.8066 29.944 8.89679 29.9435C8.99639 29.944 9.09422 29.9172 9.17974 29.8662C9.26527 29.8152 9.33524 29.7418 9.38213 29.6539C9.38213 29.6539 9.39759 29.6198 9.41893 29.5686C9.67066 29.3264 10.444 28.7456 12.4515 28.208C12.8132 28.1097 13.1583 27.9582 13.4755 27.7584C13.6506 28.0845 13.8721 28.3834 14.1331 28.6459C15.5928 30.1056 15.9763 30.9968 16.0776 31.344C16.0723 31.3846 16.0707 31.4256 16.0712 31.4667C16.0809 31.6124 16.1459 31.7488 16.2531 31.848C16.3602 31.9472 16.5012 32.0016 16.6472 32C16.7886 32 16.9243 31.9438 17.0243 31.8438C17.1243 31.7438 17.1805 31.6082 17.1805 31.4667C17.1801 31.4244 17.1769 31.3822 17.1709 31.3403C17.2685 31.0011 17.6509 30.1088 19.1149 28.6438C19.3792 28.3786 19.6029 28.076 19.7789 27.7456C20.094 27.9397 20.4352 28.0875 20.7923 28.1846C22.7869 28.7179 23.5656 29.2976 23.8216 29.5424C23.8456 29.6016 23.8605 29.6304 23.8605 29.6304C23.9109 29.7152 23.9825 29.7854 24.0683 29.8342C24.154 29.8829 24.251 29.9084 24.3496 29.9083C24.4509 29.9083 24.5507 29.8827 24.6392 29.8342C24.7002 29.7995 24.7538 29.753 24.7969 29.6976C24.8399 29.6421 24.8716 29.5787 24.8901 29.511C24.9086 29.4432 24.9135 29.3725 24.9046 29.3028C24.8957 29.2332 24.8731 29.166 24.8381 29.1051C24.8169 29.0692 24.7932 29.0348 24.7672 29.0022C24.6824 28.6667 24.5629 27.7072 25.0984 25.6955C25.1944 25.3339 25.2371 24.9606 25.2232 24.5867C25.2584 24.5867 25.2936 24.5931 25.3299 24.5931C25.665 24.5925 25.9986 24.5473 26.3219 24.4587C28.3336 23.9254 29.2931 24.0432 29.6285 24.1275C29.6621 24.1542 29.6979 24.1776 29.7352 24.199C30.0072 24.3302 30.3341 24.2272 30.4819 23.9638C30.5168 23.9008 30.5388 23.8314 30.5465 23.7598C30.5542 23.6881 30.5475 23.6157 30.5267 23.5467C30.5059 23.4776 30.4716 23.4132 30.4258 23.3574C30.3801 23.3016 30.3237 23.2553 30.26 23.2214C30.26 23.2214 30.2312 23.2059 30.1715 23.1819C29.9267 22.9248 29.3485 22.1467 28.8136 20.152C28.7153 19.7901 28.5638 19.4449 28.364 19.1275C28.6902 18.9526 28.9892 18.7311 29.2515 18.4699C30.7171 17.0048 31.6093 16.6235 31.9491 16.5259C31.9896 16.5312 32.0301 16.5334 32.0712 16.5334C32.2169 16.5237 32.3533 16.4586 32.4525 16.3515C32.5517 16.2444 32.6061 16.1033 32.6045 15.9574C32.6045 15.8159 32.5483 15.6803 32.4483 15.5802C32.3483 15.4802 32.2126 15.424 32.0712 15.424ZM26.0243 8.53657C26.9043 8.78883 27.8109 8.93657 28.7251 8.97603C28.3037 9.78849 27.9795 10.6477 27.7592 11.536C27.6491 11.9669 27.4317 12.3628 27.1272 12.687C26.4995 13.2797 25.6995 13.6574 24.8429 13.7654C24.6934 13.2279 24.4904 12.7067 24.2371 12.2096L26.5709 10.8624C26.6924 10.7912 26.7808 10.6748 26.8168 10.5387C26.8528 10.4025 26.8335 10.2576 26.7631 10.1357C26.6927 10.0137 26.5769 9.92453 26.4409 9.88764C26.305 9.85073 26.16 9.86909 26.0376 9.9387L23.7021 11.287C23.58 11.1046 23.4515 10.9264 23.3149 10.7536C24.0774 10.1621 24.6586 9.36848 24.9923 8.46297C25.3378 8.42015 25.6883 8.44515 26.0243 8.53657ZM18.9256 23.0966C18.6685 23.184 18.4072 23.2566 18.1416 23.3126C17.1304 23.5168 16.0883 23.5168 15.0776 23.3126C14.8109 23.256 14.5469 23.184 14.2888 23.096H14.2824L14.2776 23.0928C13.3182 22.7815 12.4333 22.2757 11.6781 21.607L11.6579 21.5872L11.6467 21.576C11.6387 21.5686 11.6317 21.56 11.6232 21.5531C11.418 21.3759 11.2255 21.1845 11.0472 20.9803C10.7019 20.6012 10.3979 20.1864 10.1405 19.743C10.1405 19.7403 10.1405 19.7366 10.1373 19.7339L10.132 19.728C9.8767 19.2823 9.66863 18.8111 9.51119 18.3222C9.424 18.0651 9.35188 17.8031 9.29519 17.5376C9.09039 16.5276 9.09039 15.4868 9.29519 14.4768C9.35386 14.2048 9.42746 13.936 9.51706 13.6726C9.82853 12.7126 10.3347 11.8272 11.004 11.0726C11.012 11.0656 11.0189 11.0576 11.0264 11.0502V11.0475C11.0355 11.0379 11.0456 11.0294 11.0541 11.0192C11.2301 10.815 11.4205 10.623 11.6237 10.4454C12.3952 9.75355 13.3015 9.22878 14.2856 8.90403C14.5427 8.81657 14.804 8.74403 15.0696 8.68803C16.0795 8.48404 17.12 8.48404 18.1299 8.68803C18.4008 8.74563 18.668 8.81923 18.9299 8.90883C19.8899 9.21977 20.7763 9.7259 21.5315 10.3952C21.5384 10.4032 21.5469 10.4102 21.5539 10.4176L21.5587 10.4219C21.5677 10.431 21.5763 10.4406 21.5864 10.4491C21.7907 10.6251 21.9821 10.8155 22.1597 11.0187C22.8536 11.7884 23.3786 12.6947 23.7011 13.6795C23.788 13.9366 23.8605 14.1984 23.9171 14.464C24.1219 15.474 24.1219 16.5148 23.9171 17.5248C23.859 17.7956 23.7853 18.0627 23.6963 18.3248C23.385 19.2857 22.8784 20.1718 22.2083 20.9275C22.2013 20.9334 22.1949 20.9408 22.1885 20.9472L22.1789 20.9568C22.1715 20.9648 22.1629 20.9723 22.1555 20.9808C21.9795 21.1851 21.7891 21.3771 21.5859 21.5547C20.8148 22.2463 19.9091 22.7716 18.9256 23.0966ZM21.0312 4.82457C21.9196 4.60419 22.7788 4.27982 23.5912 3.85817C23.6307 4.77337 23.7779 5.68057 24.0307 6.5611C24.1496 6.9899 24.1592 7.4411 24.0579 7.8747C23.8128 8.70349 23.3059 9.43062 22.6131 9.94723C22.5211 9.85544 22.4263 9.76651 22.3288 9.68057L22.3117 9.6635L22.3059 9.65763L22.2888 9.6411C21.9837 9.3707 21.6595 9.12377 21.3187 8.9003L22.6659 6.56697C22.7014 6.50629 22.7247 6.43917 22.7342 6.36949C22.7437 6.2998 22.7394 6.22891 22.7214 6.16091C22.7034 6.09292 22.6722 6.02914 22.6294 5.97327C22.5867 5.9174 22.5333 5.87053 22.4724 5.83536C22.4115 5.80019 22.3443 5.77742 22.2745 5.76835C22.2048 5.75929 22.1339 5.76411 22.066 5.78253C21.9981 5.80096 21.9346 5.83264 21.879 5.87573C21.8234 5.91882 21.7769 5.97249 21.7421 6.03363L20.3949 8.36697C20.1982 8.26933 19.9977 8.17948 19.7939 8.09763C20.1479 7.20317 20.2537 6.22966 20.1 5.28003C20.3771 5.06801 20.6937 4.91318 21.0312 4.82457ZM16.5832 1.99097C17.0757 2.76368 17.6581 3.47531 18.3181 4.11097C18.6345 4.42226 18.8688 4.80704 19.0003 5.23097C19.199 6.07209 19.1243 6.95471 18.7869 7.75043C18.6417 7.71129 18.4955 7.67572 18.3485 7.64377C17.9485 7.5659 17.5443 7.51577 17.1379 7.4939V4.80003C17.1379 4.65858 17.0817 4.52293 16.9817 4.42291C16.8816 4.32289 16.746 4.2667 16.6045 4.2667C16.4631 4.2667 16.3274 4.32289 16.2274 4.42291C16.1274 4.52293 16.0712 4.65858 16.0712 4.80003V7.4939C15.8525 7.50723 15.6344 7.52803 15.4157 7.5579C15.279 6.6038 14.8812 5.70605 14.2664 4.96377C14.4024 4.64377 14.6003 4.35363 14.8483 4.11043C15.5084 3.47506 16.0908 2.76359 16.5832 1.99097ZM9.14159 6.57763C9.39357 5.69812 9.5409 4.79194 9.58053 3.8779C10.3929 4.29924 11.2522 4.62326 12.1405 4.84323C12.5715 4.9531 12.9672 5.1707 13.2909 5.47523C13.8885 6.09981 14.2674 6.90131 14.3709 7.7595C13.8333 7.90909 13.3119 8.11205 12.8147 8.36537L11.4675 6.0315C11.3962 5.91 11.2798 5.82161 11.1437 5.78561C11.0075 5.74962 10.8627 5.76893 10.7407 5.83935C10.6187 5.90977 10.5296 6.02558 10.4927 6.16149C10.4558 6.29741 10.4741 6.4424 10.5437 6.56483L11.892 8.9003C11.7096 9.02243 11.5315 9.15097 11.3587 9.2875C10.7672 8.52512 9.97348 7.94414 9.06799 7.6107C9.02496 7.26555 9.04997 6.91531 9.14159 6.57977V6.57763ZM7.16453 8.57337C7.59317 8.45418 8.04492 8.44483 8.47813 8.54617C9.31052 8.79323 10.0404 9.30355 10.5581 10.0006C10.4669 10.0934 10.3667 10.1803 10.2824 10.2763L10.2659 10.2934L10.2616 10.2971L10.244 10.3147C9.97428 10.62 9.72705 10.9444 9.50426 11.2854L7.16986 9.93817C7.10918 9.9026 7.04207 9.87938 6.97238 9.86985C6.90269 9.86032 6.83181 9.86467 6.76381 9.88265C6.69581 9.90063 6.63204 9.93188 6.57616 9.9746C6.52029 10.0173 6.47342 10.0707 6.43825 10.1316C6.40308 10.1925 6.38031 10.2598 6.37124 10.3295C6.36218 10.3993 6.367 10.4701 6.38543 10.538C6.40386 10.6059 6.43553 10.6694 6.47862 10.725C6.52172 10.7806 6.57538 10.8271 6.63653 10.8619L8.96986 12.2091C8.87173 12.407 8.78159 12.6064 8.69999 12.8102C7.80606 12.457 6.83342 12.3514 5.88452 12.5046C5.6725 12.2274 5.51768 11.9109 5.42906 11.5734C5.20834 10.6851 4.88398 9.82589 4.46266 9.01337C5.37747 8.97369 6.28439 8.826 7.16453 8.57337ZM2.59492 16.0214C3.36771 15.5289 4.07935 14.9465 4.71492 14.2864C5.02627 13.9701 5.41104 13.7358 5.83493 13.6043C6.67627 13.406 7.55889 13.4808 8.35493 13.8176C8.31759 13.9552 8.28239 14.0971 8.24826 14.2491V14.2576C8.17041 14.6567 8.12034 15.0607 8.09839 15.4667H5.40452C5.26308 15.4667 5.12742 15.5229 5.0274 15.6229C4.92738 15.7229 4.87119 15.8586 4.87119 16C4.87119 16.1415 4.92738 16.2771 5.0274 16.3772C5.12742 16.4772 5.26308 16.5334 5.40452 16.5334H8.09839C8.11173 16.7515 8.13306 16.9691 8.16293 17.1883C7.20854 17.3249 6.31054 17.7229 5.56826 18.3382C5.24839 18.2021 4.95843 18.0044 4.71492 17.7563C4.07943 17.0961 3.36778 16.5137 2.59492 16.0214ZM7.18479 23.4635C6.30479 23.2112 5.39813 23.0635 4.48399 23.024C4.90533 22.2116 5.22951 21.3523 5.44986 20.464C5.55998 20.0332 5.7774 19.6372 6.08186 19.3131C6.70955 18.7203 7.50956 18.3427 8.36613 18.2347C8.51501 18.7728 8.71726 19.2947 8.96986 19.7926L6.63812 21.1387C6.57698 21.1735 6.52332 21.22 6.48022 21.2756C6.43713 21.3312 6.40546 21.3947 6.38703 21.4626C6.3686 21.5305 6.36378 21.6013 6.37284 21.6711C6.38191 21.7408 6.40468 21.8081 6.43985 21.869C6.47502 21.9299 6.52189 21.9833 6.57776 22.026C6.63364 22.0687 6.69741 22.1 6.76541 22.118C6.83341 22.1359 6.90429 22.1403 6.97398 22.1308C7.04367 22.1212 7.11078 22.098 7.17146 22.0624L9.50373 20.7163C9.62639 20.8992 9.75599 21.0774 9.89199 21.2496C9.13053 21.841 8.55016 22.634 8.21679 23.5387C7.87118 23.5813 7.52058 23.5557 7.18479 23.4635ZM12.1784 27.1755C11.29 27.3959 10.4308 27.7202 9.61839 28.1419C9.57908 27.2267 9.43156 26.3195 9.17893 25.439C9.05974 25.0103 9.05039 24.5586 9.15173 24.1254C9.39678 23.2966 9.90367 22.5695 10.5965 22.0528C10.6899 22.1451 10.7843 22.2352 10.8808 22.3195C10.8931 22.3334 10.9069 22.3462 10.9208 22.359C11.2259 22.6288 11.5501 22.8763 11.8915 23.0987L10.5437 25.4331C10.5082 25.4938 10.4849 25.5609 10.4754 25.6306C10.4659 25.7003 10.4702 25.7712 10.4882 25.8392C10.5062 25.9072 10.5374 25.9709 10.5802 26.0268C10.6229 26.0827 10.6762 26.1295 10.7372 26.1647C10.7981 26.1999 10.8653 26.2227 10.9351 26.2317C11.0048 26.2408 11.0757 26.236 11.1436 26.2175C11.2114 26.1991 11.275 26.1674 11.3306 26.1243C11.3862 26.0812 11.4327 26.0276 11.4675 25.9664L12.8147 23.6326C13.012 23.7307 13.2125 23.8208 13.4157 23.903C13.0612 24.7981 12.9556 25.7724 13.1101 26.7227C12.8324 26.9339 12.5161 27.0878 12.1784 27.1755ZM16.6259 30.0091C16.1331 29.2365 15.5508 28.5249 14.8909 27.8891C14.5746 27.5778 14.3402 27.193 14.2088 26.7691C14.0103 25.928 14.085 25.0454 14.4221 24.2496C14.5592 24.2864 14.7005 24.3216 14.8531 24.3563H14.8611C15.2605 24.4342 15.6648 24.4843 16.0712 24.5062V27.2C16.0712 27.3415 16.1274 27.4771 16.2274 27.5772C16.3274 27.6772 16.4631 27.7334 16.6045 27.7334C16.746 27.7334 16.8816 27.6772 16.9817 27.5772C17.0817 27.4771 17.1379 27.3415 17.1379 27.2V24.5062C17.356 24.4928 17.5741 24.4715 17.7933 24.4416C17.93 25.3959 18.3277 26.2939 18.9427 27.0363C18.8067 27.3562 18.609 27.6462 18.3608 27.8896C17.7008 28.5251 17.1184 29.2365 16.6259 30.0091ZM24.0675 25.4224C23.8155 26.302 23.6682 27.2081 23.6285 28.1222C22.8161 27.7008 21.9569 27.3768 21.0685 27.1568C20.6378 27.0467 20.2421 26.8293 19.9181 26.5248C19.3206 25.9003 18.9416 25.0988 18.8381 24.2406C19.3758 24.091 19.8971 23.888 20.3944 23.6347L21.7416 25.9686C21.8128 26.0901 21.9292 26.1785 22.0654 26.2145C22.2015 26.2505 22.3464 26.2311 22.4684 26.1607C22.5903 26.0903 22.6795 25.9745 22.7164 25.8386C22.7533 25.7027 22.7349 25.5577 22.6653 25.4352L21.3171 23.0998C21.4995 22.9776 21.6776 22.8491 21.8504 22.7126C22.4419 23.4749 23.2356 24.0559 24.1411 24.3894C24.1837 24.7344 24.1592 25.0848 24.0675 25.4203V25.4224ZM26.0408 23.4288C25.6122 23.5483 25.1604 23.5576 24.7272 23.456C23.8948 23.209 23.165 22.6986 22.6472 22.0016C22.7384 21.9088 22.8387 21.8219 22.9229 21.7259L22.9613 21.6875C23.2312 21.3824 23.4787 21.0582 23.7016 20.7168L26.0355 22.064C26.1579 22.1336 26.3029 22.152 26.4388 22.1151C26.5747 22.0782 26.6905 21.989 26.7609 21.8671C26.8314 21.7451 26.8507 21.6002 26.8147 21.4641C26.7787 21.3279 26.6903 21.2115 26.5688 21.1403L24.2355 19.7931C24.3325 19.5974 24.4216 19.3979 24.5021 19.1936C25.1453 19.44 25.8264 19.5723 26.5149 19.583C26.7871 19.5793 27.0582 19.5493 27.3245 19.4934C27.5366 19.771 27.6911 20.0881 27.7789 20.4262C27.9996 21.3144 28.324 22.1736 28.7453 22.9862C27.8309 23.0261 26.9243 23.174 26.0445 23.4267L26.0408 23.4288ZM28.4915 17.7158C28.1801 18.0321 27.7953 18.2664 27.3715 18.3979C26.5301 18.5962 25.6475 18.5215 24.8515 18.1846C24.8888 18.0448 24.9251 17.9008 24.9581 17.7446C25.0371 17.3446 25.0877 16.9403 25.1107 16.5334H27.8045C27.946 16.5334 28.0816 16.4772 28.1817 16.3772C28.2817 16.2771 28.3379 16.1415 28.3379 16C28.3379 15.8586 28.2817 15.7229 28.1817 15.6229C28.0816 15.5229 27.946 15.4667 27.8045 15.4667H25.1107C25.0973 15.2477 25.0758 15.0292 25.0461 14.8118C26.0005 14.6751 26.8985 14.2772 27.6408 13.6619C27.9608 13.7979 28.2504 13.9958 28.4941 14.2438C29.1297 14.9041 29.8416 15.4865 30.6147 15.9787C29.8416 16.4709 29.1297 17.0533 28.4941 17.7136L28.4915 17.7158Z" fill="#2EECC0"/>
<path d="M19.9981 18.5755L21.4183 19.3952C21.479 19.4308 21.5461 19.454 21.6158 19.4635C21.6855 19.473 21.7564 19.4687 21.8244 19.4507C21.8924 19.4327 21.9562 19.4015 22.012 19.3588C22.0679 19.316 22.1148 19.2627 22.1499 19.2018C22.1851 19.1409 22.2079 19.0736 22.217 19.0038C22.226 18.9341 22.2212 18.8632 22.2028 18.7954C22.1843 18.7275 22.1527 18.6639 22.1096 18.6083C22.0665 18.5527 22.0128 18.5062 21.9517 18.4715L20.5373 17.6533C20.6868 17.2952 20.7867 16.9184 20.8343 16.5333H22.4711C22.6126 16.5333 22.7482 16.4771 22.8483 16.3771C22.9483 16.2771 23.0045 16.1414 23.0045 16C23.0045 15.8586 22.9483 15.7229 22.8483 15.6229C22.7482 15.5229 22.6126 15.4667 22.4711 15.4667H20.8343C20.7867 15.0816 20.6868 14.7048 20.5373 14.3467L21.9517 13.5296C22.0128 13.4948 22.0665 13.4483 22.1096 13.3927C22.1527 13.3371 22.1843 13.2736 22.2028 13.2057C22.2212 13.1378 22.226 13.067 22.217 12.9972C22.2079 12.9275 22.1851 12.8602 22.1499 12.7993C22.1148 12.7384 22.0679 12.685 22.012 12.6423C21.9562 12.5996 21.8924 12.5683 21.8244 12.5503C21.7564 12.5324 21.6855 12.528 21.6158 12.5375C21.5461 12.5471 21.479 12.5703 21.4183 12.6059L19.9981 13.4256C19.7634 13.1173 19.4882 12.8421 19.1799 12.6075L19.9997 11.1872C20.0352 11.1265 20.0585 11.0594 20.068 10.9897C20.0775 10.92 20.0732 10.8491 20.0552 10.7811C20.0372 10.7131 20.006 10.6494 19.9632 10.5935C19.9205 10.5376 19.8672 10.4908 19.8062 10.4556C19.7453 10.4204 19.6781 10.3976 19.6083 10.3886C19.5386 10.3795 19.4677 10.3843 19.3998 10.4028C19.332 10.4212 19.2684 10.4529 19.2128 10.496C19.1572 10.5391 19.1107 10.5927 19.0759 10.6539L18.2578 12.0677C17.8999 11.9177 17.523 11.8176 17.1378 11.7701V10.1333C17.1378 9.99188 17.0816 9.85623 16.9816 9.75621C16.8816 9.65619 16.7459 9.6 16.6045 9.6C16.463 9.6 16.3274 9.65619 16.2273 9.75621C16.1273 9.85623 16.0711 9.99188 16.0711 10.1333V11.7701C15.6859 11.8176 15.3091 11.9177 14.9511 12.0677L14.1341 10.6528C14.0993 10.5917 14.0528 10.538 13.9972 10.4949C13.9416 10.4518 13.878 10.4201 13.8102 10.4017C13.7423 10.3833 13.6714 10.3785 13.6017 10.3875C13.5319 10.3966 13.4647 10.4194 13.4038 10.4545C13.3428 10.4897 13.2895 10.5366 13.2468 10.5924C13.204 10.6483 13.1728 10.7121 13.1548 10.7801C13.1368 10.8481 13.1325 10.919 13.142 10.9887C13.1515 11.0583 13.1748 11.1255 13.2103 11.1861L14.0301 12.6064C13.7218 12.8411 13.4466 13.1163 13.2119 13.4245L11.7917 12.6048C11.731 12.5692 11.6639 12.546 11.5942 12.5365C11.5245 12.527 11.4536 12.5313 11.3856 12.5493C11.3176 12.5673 11.2538 12.5985 11.198 12.6412C11.1421 12.684 11.0952 12.7373 11.0601 12.7982C11.0249 12.8591 11.0021 12.9264 10.9931 12.9962C10.984 13.0659 10.9888 13.1368 11.0072 13.2046C11.0257 13.2725 11.0573 13.3361 11.1004 13.3917C11.1435 13.4473 11.1972 13.4938 11.2583 13.5285L12.6717 14.3467C12.5222 14.7048 12.4222 15.0816 12.3746 15.4667H10.7378C10.5964 15.4667 10.4607 15.5229 10.3607 15.6229C10.2607 15.7229 10.2045 15.8586 10.2045 16C10.2045 16.1414 10.2607 16.2771 10.3607 16.3771C10.4607 16.4771 10.5964 16.5333 10.7378 16.5333H12.3746C12.4222 16.9184 12.5222 17.2952 12.6717 17.6533L11.2573 18.4704C11.1961 18.5052 11.1425 18.5517 11.0994 18.6073C11.0563 18.6629 11.0246 18.7264 11.0062 18.7943C10.9877 18.8622 10.9829 18.933 10.992 19.0028C11.0011 19.0725 11.0238 19.1398 11.059 19.2007C11.0942 19.2616 11.141 19.315 11.1969 19.3577C11.2528 19.4004 11.3166 19.4317 11.3845 19.4497C11.4525 19.4676 11.5234 19.472 11.5931 19.4625C11.6628 19.4529 11.7299 19.4297 11.7906 19.3941L13.2109 18.5744C13.4455 18.8827 13.7207 19.1579 14.029 19.3925L13.2093 20.8128C13.1737 20.8735 13.1505 20.9406 13.1409 21.0103C13.1314 21.08 13.1358 21.1509 13.1537 21.2189C13.1717 21.2868 13.203 21.3506 13.2457 21.4065C13.2884 21.4624 13.3418 21.5092 13.4027 21.5444C13.4636 21.5796 13.5309 21.6023 13.6006 21.6114C13.6704 21.6205 13.7412 21.6157 13.8091 21.5972C13.877 21.5788 13.9405 21.5471 13.9961 21.504C14.0517 21.4609 14.0982 21.4073 14.133 21.3461L14.9511 19.9323C15.3091 20.0823 15.6859 20.1824 16.0711 20.2299V21.8667C16.0711 22.0081 16.1273 22.1438 16.2273 22.2438C16.3274 22.3438 16.463 22.4 16.6045 22.4C16.7459 22.4 16.8816 22.3438 16.9816 22.2438C17.0816 22.1438 17.1378 22.0081 17.1378 21.8667V20.2299C17.523 20.1824 17.8999 20.0823 18.2578 19.9323L19.0749 21.3472C19.1096 21.4083 19.1561 21.462 19.2117 21.5051C19.2673 21.5482 19.3309 21.5799 19.3988 21.5983C19.4666 21.6167 19.5375 21.6215 19.6072 21.6125C19.677 21.6034 19.7443 21.5806 19.8052 21.5455C19.8661 21.5103 19.9194 21.4634 19.9622 21.4076C20.0049 21.3517 20.0361 21.2879 20.0541 21.2199C20.0721 21.1519 20.0765 21.081 20.0669 21.0113C20.0574 20.9417 20.0342 20.8745 19.9986 20.8139L19.1789 19.3936C19.4875 19.159 19.7631 18.8838 19.9981 18.5755ZM16.6045 19.2C15.7558 19.2 14.9418 18.8629 14.3417 18.2627C13.7416 17.6626 13.4045 16.8487 13.4045 16C13.4045 15.1513 13.7416 14.3374 14.3417 13.7373C14.9418 13.1371 15.7558 12.8 16.6045 12.8C17.4532 12.8 18.2671 13.1371 18.8672 13.7373C19.4673 14.3374 19.8045 15.1513 19.8045 16C19.8045 16.8487 19.4673 17.6626 18.8672 18.2627C18.2671 18.8629 17.4532 19.2 16.6045 19.2Z" fill="#2EECC0"/>
<path d="M18.2045 15.4667H17.892L18.0483 15.3104C18.1454 15.2098 18.1992 15.0751 18.198 14.9353C18.1967 14.7954 18.1406 14.6616 18.0418 14.5628C17.9429 14.4639 17.8091 14.4078 17.6693 14.4066C17.5294 14.4054 17.3947 14.4591 17.2941 14.5563L17.1379 14.7125V14.4C17.1379 14.2586 17.0817 14.1229 16.9816 14.0229C16.8816 13.9229 16.746 13.8667 16.6045 13.8667C16.4631 13.8667 16.3274 13.9229 16.2274 14.0229C16.1274 14.1229 16.0712 14.2586 16.0712 14.4V14.7125L15.9149 14.5563C15.8143 14.4591 15.6796 14.4054 15.5398 14.4066C15.3999 14.4078 15.2662 14.4639 15.1673 14.5628C15.0684 14.6616 15.0123 14.7954 15.0111 14.9353C15.0099 15.0751 15.0636 15.2098 15.1608 15.3104L15.3171 15.4667H15.0045C14.8631 15.4667 14.7274 15.5229 14.6274 15.6229C14.5274 15.7229 14.4712 15.8586 14.4712 16C14.4712 16.1415 14.5274 16.2771 14.6274 16.3771C14.7274 16.4771 14.8631 16.5333 15.0045 16.5333H15.3171L15.1608 16.6896C15.1099 16.7388 15.0692 16.7977 15.0413 16.8627C15.0133 16.9278 14.9986 16.9978 14.998 17.0686C14.9974 17.1394 15.0109 17.2096 15.0377 17.2752C15.0645 17.3407 15.1041 17.4003 15.1542 17.4503C15.2043 17.5004 15.2638 17.54 15.3293 17.5668C15.3949 17.5937 15.4651 17.6072 15.5359 17.6065C15.6068 17.6059 15.6767 17.5912 15.7418 17.5633C15.8069 17.5353 15.8657 17.4947 15.9149 17.4437L16.0712 17.2875V17.6C16.0712 17.7415 16.1274 17.8771 16.2274 17.9771C16.3274 18.0771 16.4631 18.1333 16.6045 18.1333C16.746 18.1333 16.8816 18.0771 16.9816 17.9771C17.0817 17.8771 17.1379 17.7415 17.1379 17.6V17.2875L17.2941 17.4437C17.3947 17.5409 17.5294 17.5946 17.6693 17.5934C17.8091 17.5922 17.9429 17.5361 18.0418 17.4372C18.1406 17.3384 18.1967 17.2046 18.198 17.0647C18.1992 16.9249 18.1454 16.7902 18.0483 16.6896L17.892 16.5333H18.2045C18.346 16.5333 18.4816 16.4771 18.5816 16.3771C18.6817 16.2771 18.7379 16.1415 18.7379 16C18.7379 15.8586 18.6817 15.7229 18.5816 15.6229C18.4816 15.5229 18.346 15.4667 18.2045 15.4667Z" fill="#2EECC0"/>
<path d="M12.8711 2.66667C13.1657 2.66667 13.4044 2.42788 13.4044 2.13333C13.4044 1.83878 13.1657 1.6 12.8711 1.6C12.5766 1.6 12.3378 1.83878 12.3378 2.13333C12.3378 2.42788 12.5766 2.66667 12.8711 2.66667Z" fill="#2EECC0"/>
<path d="M20.3378 2.66667C20.6323 2.66667 20.8711 2.42788 20.8711 2.13333C20.8711 1.83878 20.6323 1.6 20.3378 1.6C20.0432 1.6 19.8044 1.83878 19.8044 2.13333C19.8044 2.42788 20.0432 2.66667 20.3378 2.66667Z" fill="#2EECC0"/>
<path d="M26.7378 6.4C27.0324 6.4 27.2711 6.16122 27.2711 5.86667C27.2711 5.57211 27.0324 5.33333 26.7378 5.33333C26.4432 5.33333 26.2045 5.57211 26.2045 5.86667C26.2045 6.16122 26.4432 6.4 26.7378 6.4Z" fill="#2EECC0"/>
<path d="M30.4712 12.8C30.7658 12.8 31.0045 12.5612 31.0045 12.2667C31.0045 11.9721 30.7658 11.7333 30.4712 11.7333C30.1766 11.7333 29.9379 11.9721 29.9379 12.2667C29.9379 12.5612 30.1766 12.8 30.4712 12.8Z" fill="#2EECC0"/>
<path d="M30.4712 20.2667C30.7658 20.2667 31.0045 20.0279 31.0045 19.7333C31.0045 19.4388 30.7658 19.2 30.4712 19.2C30.1766 19.2 29.9379 19.4388 29.9379 19.7333C29.9379 20.0279 30.1766 20.2667 30.4712 20.2667Z" fill="#2EECC0"/>
<path d="M26.7378 26.6667C27.0324 26.6667 27.2711 26.4279 27.2711 26.1333C27.2711 25.8388 27.0324 25.6 26.7378 25.6C26.4432 25.6 26.2045 25.8388 26.2045 26.1333C26.2045 26.4279 26.4432 26.6667 26.7378 26.6667Z" fill="#2EECC0"/>
<path d="M20.3378 30.4C20.6323 30.4 20.8711 30.1612 20.8711 29.8667C20.8711 29.5721 20.6323 29.3333 20.3378 29.3333C20.0432 29.3333 19.8044 29.5721 19.8044 29.8667C19.8044 30.1612 20.0432 30.4 20.3378 30.4Z" fill="#2EECC0"/>
<path d="M12.8711 30.4C13.1657 30.4 13.4044 30.1612 13.4044 29.8667C13.4044 29.5721 13.1657 29.3333 12.8711 29.3333C12.5766 29.3333 12.3378 29.5721 12.3378 29.8667C12.3378 30.1612 12.5766 30.4 12.8711 30.4Z" fill="#2EECC0"/>
<path d="M6.4712 26.6667C6.76575 26.6667 7.00453 26.4279 7.00453 26.1333C7.00453 25.8388 6.76575 25.6 6.4712 25.6C6.17665 25.6 5.93787 25.8388 5.93787 26.1333C5.93787 26.4279 6.17665 26.6667 6.4712 26.6667Z" fill="#2EECC0"/>
<path d="M2.7378 20.2667C3.03235 20.2667 3.27113 20.0279 3.27113 19.7333C3.27113 19.4388 3.03235 19.2 2.7378 19.2C2.44325 19.2 2.20447 19.4388 2.20447 19.7333C2.20447 20.0279 2.44325 20.2667 2.7378 20.2667Z" fill="#2EECC0"/>
<path d="M2.7378 12.8C3.03235 12.8 3.27113 12.5612 3.27113 12.2667C3.27113 11.9721 3.03235 11.7333 2.7378 11.7333C2.44325 11.7333 2.20447 11.9721 2.20447 12.2667C2.20447 12.5612 2.44325 12.8 2.7378 12.8Z" fill="#2EECC0"/>
<path d="M6.4712 6.4C6.76575 6.4 7.00453 6.16122 7.00453 5.86667C7.00453 5.57211 6.76575 5.33333 6.4712 5.33333C6.17665 5.33333 5.93787 5.57211 5.93787 5.86667C5.93787 6.16122 6.17665 6.4 6.4712 6.4Z" fill="#2EECC0"/>
</g>
<defs>
<clipPath id="clip0_2_153">
<rect width="32" height="32" fill="white" transform="translate(0.604492)"/>
</clipPath>
</defs>
</svg>
