<svg width="43" height="42" viewBox="0 0 43 42" fill="none" xmlns="http://www.w3.org/2000/svg">
<g clip-path="url(#clip0_2_171)">
<path d="M5.71235 24.9819C7.91148 24.9819 9.69423 23.1991 9.69423 21C9.69423 18.8009 7.91148 17.0181 5.71235 17.0181C3.51322 17.0181 1.73047 18.8009 1.73047 21C1.73047 23.1991 3.51322 24.9819 5.71235 24.9819Z" stroke="#2EECC0" stroke-width="2.46094" stroke-miterlimit="10"/>
<path d="M18.1899 24.9819C20.389 24.9819 22.1718 23.1991 22.1718 21C22.1718 18.8009 20.389 17.0181 18.1899 17.0181C15.9908 17.0181 14.208 18.8009 14.208 21C14.208 23.1991 15.9908 24.9819 18.1899 24.9819Z" stroke="#2EECC0" stroke-width="2.46094" stroke-miterlimit="10"/>
<path d="M33.9776 28.292C38.0048 28.292 41.2696 25.0273 41.2696 21C41.2696 16.9727 38.0048 13.708 33.9776 13.708C29.9503 13.708 26.6855 16.9727 26.6855 21C26.6855 25.0273 29.9503 28.292 33.9776 28.292Z" stroke="#2EECC0" stroke-width="2.46094" stroke-miterlimit="10"/>
<path d="M30.7422 20.5146L33.174 22.753L36.7619 18.9043M9.69409 21H14.2079M22.1716 21H26.6854" stroke="#2EECC0" stroke-width="2.46094" stroke-miterlimit="10"/>
</g>
<defs>
<clipPath id="clip0_2_171">
<rect width="42" height="42" fill="white" transform="translate(0.5)"/>
</clipPath>
</defs>
</svg>
