<svg width="160" height="160" viewBox="0 0 160 160" fill="none" xmlns="http://www.w3.org/2000/svg">
<path d="M1.24993 99.3694L18.8681 109.541C19.1524 109.705 19.4663 109.812 19.7919 109.854C20.1174 109.897 20.4482 109.875 20.7653 109.79C21.0824 109.705 21.3796 109.559 21.6401 109.359C21.9005 109.159 22.119 108.909 22.2831 108.625L22.9177 107.526L33.1209 113.499C32.8797 114.367 32.7574 115.263 32.7574 116.163C32.7525 117.456 33.0041 118.737 33.4976 119.932C33.9911 121.128 34.7167 122.213 35.6324 123.126C36.5461 124.04 37.6315 124.766 38.8263 125.26C40.021 125.754 41.3017 126.007 42.5946 126.005C42.7843 126.005 42.9743 125.997 43.164 125.987C43.1534 126.174 43.1465 126.362 43.1465 126.552C43.1437 127.845 43.3962 129.126 43.8896 130.32C44.383 131.515 45.1075 132.601 46.0215 133.515C46.9355 134.429 48.0211 135.153 49.2158 135.647C50.4106 136.14 51.6911 136.392 52.9837 136.39C53.1743 136.39 53.364 136.383 53.5531 136.372C53.5418 136.562 53.5359 136.752 53.5353 136.942C53.5324 138.234 53.7849 139.515 54.2783 140.709C54.7716 141.904 55.4961 142.99 56.4101 143.904C57.3242 144.818 58.4097 145.543 59.6045 146.036C60.7993 146.529 62.0798 146.782 63.3724 146.779C64.0647 146.779 64.7551 146.707 65.4324 146.563C65.7466 148.492 66.7376 150.246 68.2277 151.51C69.7179 152.774 71.6096 153.466 73.5637 153.461C74.5519 153.462 75.5322 153.286 76.4584 152.942L76.9549 153.437C78.0264 154.511 79.3731 155.267 80.8469 155.624C82.3208 155.981 83.8645 155.925 85.3082 155.461C86.752 154.997 88.0397 154.144 89.0296 152.995C90.0196 151.846 90.6734 150.446 90.919 148.95C91.5959 149.094 92.286 149.168 92.9781 149.169C94.3188 149.17 95.6457 148.898 96.8772 148.368C98.1086 147.837 99.2186 147.061 100.139 146.086C101.059 145.11 101.77 143.957 102.228 142.697C102.686 141.437 102.881 140.097 102.802 138.758C102.989 138.769 103.177 138.775 103.367 138.775C104.708 138.778 106.035 138.506 107.266 137.977C108.498 137.447 109.608 136.671 110.529 135.696C111.449 134.721 112.16 133.568 112.618 132.308C113.076 131.048 113.271 129.707 113.191 128.369C113.378 128.38 113.566 128.386 113.757 128.386C115.559 128.384 117.327 127.888 118.867 126.95C120.407 126.013 121.66 124.671 122.489 123.07C123.319 121.47 123.693 119.672 123.571 117.873C123.449 116.075 122.836 114.344 121.798 112.87L135.589 104.94L137.717 108.625C138.048 109.199 138.594 109.618 139.235 109.79C139.875 109.961 140.558 109.871 141.132 109.54L158.75 99.3694C159.324 99.0378 159.743 98.4918 159.915 97.8514C160.086 97.2109 159.996 96.5286 159.665 95.9544L136.558 55.9328C136.227 55.3587 135.681 54.9398 135.041 54.7682C134.4 54.5966 133.718 54.6864 133.144 55.0178L115.526 65.1897C114.951 65.5212 114.532 66.0672 114.361 66.7077C114.189 67.3481 114.279 68.0305 114.611 68.6047L116.654 72.144L113.733 73.25C112.393 73.7862 110.904 73.8163 109.543 73.3347L90.0699 66.8437C88.9894 66.4739 87.8458 66.3235 86.7064 66.4012C85.5669 66.4789 84.4544 66.7832 83.434 67.2962L79.559 69.2062C79.5224 69.1844 79.4871 69.1609 79.4487 69.1406L74.8328 66.7031C73.589 66.0366 72.2014 65.6838 70.7904 65.6752C69.3794 65.6666 67.9876 66.0025 66.7359 66.6537L60.574 69.81C60.1068 70.0712 59.5818 70.2118 59.0465 70.2191L44.359 70.3872L45.3884 68.6037C45.7199 68.0295 45.8097 67.3472 45.6381 66.7067C45.4665 66.0663 45.0476 65.5203 44.4734 65.1887L26.8562 55.0178C26.282 54.6864 25.5997 54.5966 24.9594 54.7682C24.319 54.9398 23.773 55.3587 23.4415 55.9328L0.334931 95.9544C0.00342544 96.5286 -0.0864111 97.2109 0.0851836 97.8514C0.256778 98.4918 0.675749 99.0378 1.24993 99.3694ZM39.1677 119.591C38.264 118.68 37.7569 117.448 37.7569 116.164C37.7569 114.881 38.264 113.649 39.1677 112.737L47.959 103.946C48.869 103.042 50.1 102.536 51.3825 102.539C52.665 102.541 53.8943 103.051 54.8011 103.958C55.7079 104.865 56.2182 106.094 56.2203 107.377C56.2224 108.659 55.716 109.89 54.8121 110.8L46.0215 119.591C45.1118 120.499 43.8795 121.008 42.5946 121.008C41.3098 121.008 40.0774 120.499 39.1677 119.591ZM49.5571 129.98C48.6537 129.069 48.1466 127.838 48.1462 126.555C48.1458 125.272 48.6521 124.04 49.5549 123.129L49.5571 123.127L58.3484 114.336C59.2595 113.438 60.4886 112.937 61.7675 112.942C63.0465 112.947 64.2717 113.457 65.1761 114.361C66.0804 115.266 66.5906 116.491 66.5955 117.77C66.6003 119.049 66.0993 120.278 65.2018 121.189L56.4106 129.98C55.501 130.888 54.2686 131.397 52.9838 131.397C51.699 131.397 50.4667 130.888 49.5571 129.98ZM59.9462 140.369C59.0386 139.46 58.5289 138.227 58.5289 136.942C58.5289 135.658 59.0386 134.425 59.9462 133.516L68.7371 124.725C69.646 123.816 70.8787 123.305 72.164 123.305C73.4493 123.305 74.682 123.816 75.5909 124.725C76.4997 125.634 77.0103 126.866 77.0103 128.152C77.0103 129.437 76.4997 130.67 75.5909 131.578C75.5071 131.663 75.4295 131.754 75.3587 131.851C75.0963 132.055 74.8464 132.276 74.6106 132.511L67.7318 139.389C67.4966 139.625 67.2758 139.876 67.0706 140.139C66.9749 140.209 66.8844 140.287 66.7996 140.37C65.89 141.277 64.6576 141.787 63.3728 141.787C62.088 141.787 60.8556 141.277 59.9462 140.369ZM71.2681 147.518C70.6593 146.908 70.3174 146.082 70.3174 145.221C70.3174 144.36 70.6593 143.533 71.2681 142.924L78.1462 136.046C78.7554 135.437 79.5816 135.095 80.4431 135.095C81.3046 135.095 82.1308 135.437 82.7399 136.046C83.3491 136.655 83.6913 137.481 83.6913 138.343C83.6913 139.204 83.3491 140.031 82.7399 140.64L75.8618 147.518C75.2505 148.123 74.4251 148.462 73.5649 148.462C72.7048 148.462 71.8793 148.123 71.2681 147.518ZM85.0834 149.903C84.4788 150.506 83.6614 150.847 82.8076 150.852C81.9539 150.857 81.1325 150.526 80.5209 149.93L85.1112 145.34C85.707 145.951 86.0382 146.773 86.033 147.627C86.0277 148.481 85.6866 149.299 85.0834 149.903ZM96.4062 142.755C95.4967 143.662 94.2644 144.172 92.9796 144.172C91.6949 144.172 90.4626 143.662 89.5531 142.755C89.468 142.671 89.3769 142.593 89.2806 142.523C89.0758 142.26 88.8554 142.011 88.6206 141.775L88.1421 141.296C88.5818 140.154 88.7614 138.929 88.6679 137.708C88.5744 136.488 88.2102 135.304 87.6017 134.243C86.9932 133.181 86.1557 132.268 85.1502 131.571C84.1447 130.873 82.9963 130.409 81.7887 130.211C82.062 128.925 82.0772 127.598 81.8334 126.307C82.7537 125.795 83.8155 125.597 84.8584 125.742C85.9013 125.887 86.8688 126.367 87.6146 127.11L96.4062 135.902C97.3138 136.811 97.8235 138.043 97.8235 139.328C97.8235 140.613 97.3138 141.846 96.4062 142.755ZM106.796 132.366C105.884 133.269 104.652 133.776 103.369 133.776C102.086 133.776 100.854 133.269 99.9424 132.366L91.1509 123.575C90.2688 122.661 89.7807 121.437 89.7916 120.167C89.8025 118.897 90.3116 117.682 91.2092 116.784C92.1068 115.885 93.3212 115.375 94.5912 115.363C95.8612 115.351 97.0853 115.838 97.9999 116.719V116.721L106.791 125.512C107.699 126.421 108.21 127.653 108.21 128.938C108.211 130.223 107.701 131.456 106.794 132.366H106.796ZM117.184 121.977C116.275 122.884 115.043 123.394 113.758 123.394C112.473 123.394 111.241 122.884 110.332 121.977L101.54 113.186C100.642 112.274 100.141 111.045 100.146 109.766C100.151 108.487 100.661 107.262 101.566 106.358C102.47 105.454 103.695 104.943 104.974 104.939C106.253 104.934 107.482 105.435 108.393 106.332L117.183 115.125C118.087 116.037 118.594 117.268 118.594 118.552C118.594 119.835 118.087 121.067 117.183 121.978L117.184 121.977ZM133.48 60.5981L154.087 96.289L140.798 103.961L120.19 68.2697L133.48 60.5981ZM85.6446 71.7812C86.0793 71.5537 86.5566 71.4189 87.0461 71.3856C87.5357 71.3522 88.0268 71.421 88.4884 71.5875L107.962 78.0787C110.415 78.9201 113.087 78.8662 115.505 77.9266L119.187 76.5312L133.09 100.611L118.266 109.135L111.928 102.797C111.257 102.125 110.491 101.555 109.656 101.103L89.7265 86.1625C88.46 85.2146 86.9478 84.6506 85.3699 84.5375L82.4415 84.279C80.8017 84.1215 79.151 84.4357 77.6839 85.1849C76.2167 85.934 74.9942 87.0868 74.1603 88.5075L70.2781 94.8916C70.2208 94.9994 70.1306 95.0861 70.0206 95.1392C69.9106 95.1922 69.7866 95.2088 69.6665 95.1865L63.7603 94.4428C63.671 94.4315 63.5853 94.4011 63.5089 94.3537C63.4325 94.3062 63.3673 94.2429 63.3176 94.1679C63.268 94.0929 63.2351 94.0081 63.2212 93.9193C63.2073 93.8305 63.2127 93.7397 63.2371 93.6531L66.3309 82.6844C66.4624 82.1734 66.7056 81.698 67.043 81.2923C67.3804 80.8867 67.8036 80.561 68.2821 80.3387L85.6446 71.7812ZM59.104 75.2187C60.4127 75.2043 61.6988 74.8756 62.854 74.2603L69.0159 71.1041C69.5519 70.8156 70.1518 70.6663 70.7606 70.67C71.3693 70.6736 71.9674 70.8301 72.4999 71.125L74.0284 71.9315L66.0703 75.8544C64.9621 76.3851 63.9817 77.1488 63.1959 78.0933C62.4101 79.0379 61.8376 80.141 61.5174 81.3272L58.4237 92.2959C58.2039 93.0751 58.1549 93.8925 58.28 94.6924C58.4051 95.4922 58.7013 96.2557 59.1486 96.9305C59.5958 97.6053 60.1834 98.1757 60.8713 98.6026C61.5592 99.0295 62.3311 99.3029 63.1343 99.404L69.0406 100.147C70.1179 100.292 71.214 100.118 72.1931 99.6454C73.1722 99.1732 73.9913 98.4243 74.549 97.4912L78.4315 91.1075C78.7842 90.4875 79.3091 89.9831 79.9426 89.6554C80.5761 89.3277 81.2911 89.1908 82.0009 89.2612L84.929 89.5197C85.5789 89.5511 86.2046 89.7757 86.7262 90.1647L100.903 100.792C99.178 101.572 97.7152 102.833 96.6904 104.424C95.6657 106.015 95.1227 107.869 95.1268 109.761C95.1268 109.951 95.1337 110.139 95.144 110.327C93.8057 110.247 92.4653 110.442 91.2052 110.9C89.9452 111.358 88.7922 112.069 87.8173 112.989C86.8424 113.909 86.0662 115.019 85.5366 116.251C85.007 117.483 84.7351 118.81 84.7378 120.15C84.7378 120.34 84.7446 120.528 84.7549 120.716C82.9953 120.614 81.2404 120.984 79.6724 121.789C79.4985 121.583 79.3159 121.383 79.1253 121.192C78.1435 120.209 76.9646 119.447 75.6664 118.953C74.3683 118.46 72.9803 118.248 71.594 118.33C71.6046 118.143 71.6112 117.955 71.6112 117.765C71.6143 116.424 71.3429 115.097 70.8137 113.865C70.2846 112.634 69.509 111.523 68.5345 110.603C67.5601 109.682 66.4075 108.971 65.1478 108.512C63.8881 108.054 62.5478 107.858 61.2096 107.937C61.2889 106.6 61.0934 105.259 60.6353 104C60.1772 102.74 59.4662 101.588 58.546 100.613C57.6257 99.6387 56.5158 98.8629 55.2845 98.3334C54.0532 97.804 52.7265 97.5322 51.3862 97.5347C50.0932 97.5297 48.8121 97.7813 47.617 98.2748C46.4219 98.7683 45.3365 99.4939 44.4237 100.41L35.6484 109.187L25.4177 103.197L41.4534 75.4215L59.104 75.2187ZM26.5212 60.5981L39.8093 68.2697L19.2027 103.961L5.91493 96.289L26.5212 60.5981ZM79.9999 62.7465C85.7944 62.7466 91.4587 61.0284 96.2767 57.8092C101.095 54.5901 104.85 50.0145 107.067 44.6611C109.285 39.3078 109.865 33.4171 108.735 27.734C107.604 22.0508 104.814 16.8305 100.717 12.7332C96.6193 8.63592 91.3991 5.8456 85.716 4.71513C80.0329 3.58467 74.1422 4.16483 68.7888 6.38226C63.4354 8.59969 58.8598 12.3548 55.6406 17.1727C52.4213 21.9906 50.7031 27.6549 50.7031 33.4494C50.7119 41.2167 53.8014 48.6634 59.2937 54.1557C64.786 59.6481 72.2326 62.7376 79.9999 62.7465ZM79.9999 9.1528C84.8055 9.15274 89.5031 10.5777 93.4988 13.2475C97.4945 15.9173 100.609 19.712 102.448 24.1517C104.287 28.5915 104.768 33.4768 103.831 38.1901C102.893 42.9033 100.579 47.2327 97.181 50.6307C93.7829 54.0287 89.4535 56.3428 84.7403 57.2803C80.0271 58.2178 75.1417 57.7366 70.702 55.8976C66.2622 54.0586 62.4675 50.9443 59.7978 46.9486C57.128 42.9529 55.703 38.2552 55.7031 33.4497C55.7103 27.0079 58.2725 20.8321 62.8275 16.2771C67.3824 11.7221 73.5582 9.16016 79.9999 9.1528ZM68.8787 33.5672C68.4889 33.0308 68.3281 32.3616 68.4317 31.7067C68.5353 31.0517 68.8948 30.4648 69.4312 30.075C69.9675 29.6852 70.6368 29.5244 71.2917 29.628C71.9466 29.7316 72.5335 30.0911 72.9234 30.6275L76.7499 35.8937L89.4884 25.4587C90.0018 25.0436 90.6586 24.8485 91.3154 24.9159C91.9723 24.9833 92.5757 25.3078 92.9941 25.8186C93.4125 26.3293 93.6119 26.9849 93.5487 27.6421C93.4855 28.2993 93.1649 28.9049 92.6568 29.3265L77.869 41.4403C77.6056 41.6561 77.3009 41.8158 76.9737 41.9096C76.6464 42.0034 76.3033 42.0294 75.9657 41.986C75.628 41.9425 75.3027 41.8305 75.0098 41.6569C74.7169 41.4833 74.4626 41.2516 74.2624 40.9762L68.8787 33.5672Z" fill="#2EECC0"/>
</svg>
