<svg width="160" height="160" viewBox="0 0 160 160" fill="none" xmlns="http://www.w3.org/2000/svg">
<path d="M40.615 129.825C27.505 129.825 17.325 125.765 12.55 117.5C7.36997 108.53 9.53997 96.2 18.665 82.795C27.425 69.915 41.665 57.39 58.755 47.525C60.4179 46.5691 62.0965 45.6406 63.79 44.74C64.0802 44.5861 64.3979 44.4907 64.7249 44.4596C65.052 44.4284 65.382 44.4619 65.6961 44.5582C66.0102 44.6546 66.3022 44.8118 66.5555 45.021C66.8089 45.2303 67.0185 45.4873 67.1725 45.7775C67.3264 46.0678 67.4217 46.3855 67.4529 46.7125C67.4841 47.0396 67.4506 47.3696 67.3543 47.6837C67.2579 47.9977 67.1007 48.2898 66.8914 48.5431C66.6822 48.7964 66.4252 49.0061 66.135 49.16C64.51 50.02 62.88 50.92 61.255 51.855C44.805 61.35 31.15 73.34 22.8 85.605C14.81 97.34 12.71 107.78 16.875 115C25.695 130.25 60.895 127.115 93.75 108.145C126.61 89.17 146.93 60.255 138.125 45C135.65 40.715 131.125 37.79 124.68 36.305C124.36 36.2312 124.057 36.095 123.79 35.9042C123.523 35.7135 123.295 35.4719 123.121 35.1934C122.947 34.9148 122.83 34.6046 122.775 34.2806C122.721 33.9566 122.731 33.6251 122.805 33.305C122.879 32.9849 123.015 32.6825 123.206 32.4151C123.397 32.1476 123.638 31.9203 123.917 31.7462C124.195 31.5721 124.505 31.4546 124.829 31.4003C125.153 31.3461 125.485 31.3562 125.805 31.43C133.545 33.215 139.305 37.045 142.455 42.5C152.97 60.71 132.675 91.45 96.255 112.48C76.365 123.955 56.375 129.825 40.615 129.825Z" fill="#2EECC0"/>
<path d="M114.385 129.825C98.6249 129.825 78.6399 123.955 58.7499 112.475C57.0249 111.475 55.3349 110.46 53.6849 109.415C53.3919 109.248 53.1359 109.022 52.9322 108.753C52.7285 108.484 52.5815 108.177 52.4998 107.849C52.4182 107.522 52.4036 107.181 52.4571 106.848C52.5106 106.515 52.631 106.196 52.811 105.911C52.9911 105.625 53.227 105.379 53.5047 105.188C53.7823 104.996 54.0959 104.862 54.4266 104.795C54.7572 104.728 55.0981 104.728 55.4286 104.796C55.7592 104.864 56.0725 104.998 56.3499 105.19C57.9499 106.2 59.5799 107.18 61.2499 108.15C94.1049 127.115 129.3 130.255 138.12 115C142.285 107.78 140.185 97.34 132.2 85.605C123.85 73.335 110.195 61.35 93.7449 51.855C60.8899 32.88 25.6949 29.745 16.8749 45C14.5599 49.01 14.1799 54.005 15.7399 59.835C15.8308 60.1541 15.8574 60.4881 15.8179 60.8176C15.7785 61.1471 15.6738 61.4654 15.5101 61.754C15.3464 62.0426 15.1268 62.2958 14.8642 62.4986C14.6017 62.7015 14.3013 62.8501 13.9807 62.9357C13.6602 63.0214 13.3257 63.0423 12.997 62.9974C12.6682 62.9524 12.3517 62.8424 12.0658 62.6739C11.78 62.5054 11.5306 62.2816 11.3321 62.0157C11.1336 61.7497 10.9901 61.447 10.9099 61.125C9.01986 54.07 9.58486 47.63 12.5499 42.5C23.0549 24.295 59.8299 26.495 96.2499 47.52C113.34 57.385 127.58 69.915 136.34 82.79C145.46 96.2 147.635 108.525 142.455 117.495C137.68 125.765 127.49 129.825 114.385 129.825Z" fill="#2EECC0"/>
<path d="M77.5 155C56.47 155 40 122.055 40 80C40 37.945 56.47 5 77.5 5C98.53 5 115 37.945 115 80C115 81.78 114.97 83.545 114.91 85.295C114.86 86.675 113.755 87.9 112.325 87.705C111.997 87.694 111.674 87.6184 111.375 87.4825C111.075 87.3467 110.806 87.1531 110.582 86.9131C110.357 86.673 110.183 86.3911 110.067 86.0834C109.952 85.7757 109.899 85.4484 109.91 85.12C109.97 83.435 110 81.725 110 80C110 42.055 95.115 10 77.5 10C59.885 10 45 42.055 45 80C45 117.945 59.885 150 77.5 150C82.25 150 86.87 147.73 91.225 143.255C91.6889 142.787 92.3185 142.522 92.9772 142.516C93.6358 142.51 94.2702 142.764 94.7425 143.223C95.2148 143.682 95.4868 144.309 95.4994 144.968C95.5121 145.626 95.2643 146.263 94.81 146.74C89.55 152.145 83.565 155 77.5 155Z" fill="#2EECC0"/>
<path d="M77.5002 81.2501C77.075 81.2501 76.6568 81.1417 76.2852 80.9351L53.7852 68.4351C53.3956 68.2185 53.0711 67.9017 52.8451 67.5176C52.6192 67.1334 52.5 66.6958 52.5 66.2501C52.5 65.8044 52.6192 65.3668 52.8451 64.9826C53.0711 64.5985 53.3956 64.2817 53.7852 64.0651L76.2852 51.5651C76.6568 51.3585 77.075 51.25 77.5002 51.25C77.9254 51.25 78.3436 51.3585 78.7152 51.5651L101.215 64.0651C101.605 64.2817 101.929 64.5985 102.155 64.9826C102.381 65.3668 102.5 65.8044 102.5 66.2501C102.5 66.6958 102.381 67.1334 102.155 67.5176C101.929 67.9017 101.605 68.2185 101.215 68.4351L78.7152 80.9351C78.3436 81.1417 77.9254 81.2501 77.5002 81.2501ZM60.1452 66.2501L77.5002 75.8901L94.8552 66.2501L77.5002 56.6101L60.1452 66.2501Z" fill="#2EECC0"/>
<path d="M77.5 108.75C76.837 108.75 76.2011 108.487 75.7322 108.018C75.2634 107.549 75 106.913 75 106.25V78.7501C75 78.3044 75.1191 77.8668 75.345 77.4827C75.571 77.0985 75.8955 76.7817 76.285 76.5651L98.785 64.0651C99.1656 63.8535 99.5948 63.7449 100.03 63.7502C100.466 63.7554 100.892 63.8743 101.267 64.0951C101.643 64.3158 101.954 64.6308 102.17 65.0088C102.386 65.3868 102.5 65.8147 102.5 66.2501V93.7501C102.5 94.1958 102.381 94.6334 102.155 95.0175C101.929 95.4017 101.605 95.7185 101.215 95.9351L78.715 108.435C78.3434 108.642 77.9252 108.75 77.5 108.75ZM80 80.2201V102L97.5 92.2751V70.5001L80 80.2201Z" fill="#2EECC0"/>
<path d="M77.5 108.75C77.0748 108.75 76.6566 108.641 76.285 108.435L53.785 95.9349C53.3955 95.7183 53.071 95.4015 52.845 95.0173C52.6191 94.6331 52.5 94.1956 52.5 93.7499V66.2499C52.5029 65.8156 52.6185 65.3895 52.8354 65.0132C53.0523 64.6369 53.3631 64.3233 53.7374 64.1032C54.1118 63.883 54.5369 63.7637 54.9712 63.757C55.4054 63.7503 55.834 63.8564 56.215 64.0649L78.715 76.5649C79.1045 76.7815 79.429 77.0983 79.655 77.4824C79.8809 77.8666 80 78.3042 80 78.7499V106.25C79.9974 106.912 79.7331 107.546 79.2649 108.015C78.7966 108.483 78.1622 108.747 77.5 108.75ZM57.5 92.2799L75 102V80.2199L57.5 70.4999V92.2799ZM100 140C99.35 140 98.75 139.75 98.245 139.3C97.773 138.833 97.5037 138.198 97.4953 137.534C97.4869 136.87 97.74 136.229 98.2 135.75C99.25 134.75 100.805 134.8 101.75 135.7C102.102 136.05 102.343 136.496 102.443 136.982C102.542 137.468 102.495 137.973 102.308 138.433C102.121 138.893 101.802 139.287 101.391 139.566C100.98 139.845 100.496 139.996 100 140ZM115 34.9999C114.35 34.9999 113.7 34.7499 113.245 34.2999C112.778 33.83 112.512 33.1967 112.503 32.534C112.495 31.8713 112.745 31.2315 113.2 30.7499C114.2 29.7999 115.805 29.7999 116.75 30.6999C117.102 31.0496 117.343 31.4957 117.443 31.982C117.542 32.4684 117.495 32.9732 117.308 33.433C117.121 33.8928 116.802 34.2869 116.391 34.5657C115.98 34.8446 115.496 34.9956 115 34.9999ZM17.5 72.4999C16.85 72.4999 16.2 72.2499 15.745 71.7499C15.25 71.2999 15 70.6499 15 69.9999C15 69.3499 15.25 68.6999 15.745 68.2499C16.595 67.3499 18.3 67.2999 19.245 68.2499C19.75 68.7499 20 69.3499 20 69.9999C20 70.6499 19.75 71.2499 19.295 71.7499C18.8163 72.2227 18.1728 72.4916 17.5 72.4999Z" fill="#2EECC0"/>
</svg>
