<svg width="33" height="32" viewBox="0 0 33 32" fill="none" xmlns="http://www.w3.org/2000/svg">
<g clip-path="url(#clip0_2_147)">
<path d="M26.1627 16.5333C26.3041 16.5333 26.4398 16.4771 26.5398 16.3771C26.6398 16.2771 26.696 16.1414 26.696 16C26.696 13.3105 25.6372 10.7705 23.7147 8.848C19.7381 4.8714 13.389 4.8696 9.41062 8.848C5.43402 12.8246 5.43222 19.1737 9.41062 23.1521C14.7475 28.489 23.6718 26.3245 26.1308 19.3205C26.1761 19.1874 26.1671 19.0417 26.1057 18.9153C26.0442 18.7888 25.9353 18.6917 25.8026 18.6451C25.67 18.5985 25.5243 18.6062 25.3972 18.6665C25.2702 18.7268 25.1721 18.8349 25.1243 18.9671C23.8435 22.6154 20.4028 25.0667 16.5627 25.0667C11.5633 25.0667 7.49602 20.9994 7.49602 16C7.49602 11.0006 11.5633 6.93333 16.5627 6.93333C21.5621 6.93333 25.6294 11.0006 25.6294 16C25.6294 16.1414 25.6855 16.2771 25.7856 16.3771C25.8856 16.4771 26.0212 16.5333 26.1627 16.5333Z" fill="#2EECC0"/>
<path d="M30.1307 20.9796L28.5299 19.6889C29.2672 17.295 29.2673 14.7052 28.5299 12.311L30.1307 11.0203C30.9342 10.3724 31.1428 9.25333 30.6266 8.3594L30.211 7.63953C29.6952 6.7462 28.6224 6.36773 27.6602 6.7392L25.7374 7.48187C24.029 5.64433 21.7857 4.34833 19.3518 3.79287L19.0341 1.75987C18.8748 0.7402 18.01 0 16.9779 0H16.1476C15.1154 0 14.2506 0.7402 14.0912 1.75993L13.7736 3.79287C11.3396 4.34833 9.09628 5.64427 7.38788 7.48187L5.46515 6.7392C4.50262 6.36753 3.43008 6.7462 2.91442 7.63953L2.49868 8.3594C1.98248 9.25333 2.19108 10.3725 2.99468 11.0203L4.59542 12.311C3.85808 14.7049 3.85802 17.2947 4.59542 19.6889L2.99468 20.9796C2.19108 21.6275 1.98248 22.7466 2.49868 23.6406L2.91435 24.3604C3.43002 25.2537 4.50275 25.6322 5.46509 25.2608L7.38762 24.5182C8.38291 25.5922 9.55926 26.4828 10.863 27.1495C10.9888 27.2131 11.1347 27.2244 11.2687 27.1808C11.4028 27.1371 11.5142 27.0422 11.5784 26.9167C11.6427 26.7912 11.6547 26.6453 11.6117 26.5111C11.5687 26.3768 11.4743 26.2649 11.3492 26.2001C10.0506 25.535 8.90329 24.6391 7.93942 23.5372C7.86741 23.4549 7.77185 23.3968 7.66569 23.3706C7.55953 23.3444 7.44789 23.3515 7.34588 23.3909L5.08082 24.2658C4.61202 24.4469 4.08942 24.2624 3.83808 23.8271L3.42242 23.1073C3.17082 22.6715 3.27248 22.1259 3.66422 21.8101L5.55075 20.2889C5.63591 20.2203 5.6979 20.1271 5.72831 20.022C5.75872 19.9169 5.75608 19.805 5.72075 19.7015C4.92475 17.369 4.88589 14.7451 5.72075 12.2987C5.75608 12.1951 5.75872 12.0832 5.72831 11.9782C5.6979 11.8731 5.63591 11.7799 5.55075 11.7112L3.66428 10.19C3.27255 9.8742 3.17082 9.3286 3.42248 8.8928L3.83822 8.17287C4.08948 7.73767 4.61195 7.5532 5.08088 7.73427L7.34595 8.6092C7.44797 8.64857 7.55962 8.65565 7.66579 8.62947C7.77196 8.6033 7.86752 8.54514 7.93955 8.46287C9.60442 6.55967 11.8798 5.24527 14.3465 4.76173C14.4539 4.74068 14.5523 4.68706 14.6282 4.60815C14.7042 4.52923 14.7539 4.42886 14.7708 4.32067L15.1452 1.92467C15.2228 1.42753 15.6444 1.06667 16.1476 1.06667H16.9779C17.481 1.06667 17.9026 1.42753 17.9803 1.9246L18.3547 4.3206C18.3716 4.42879 18.4214 4.52915 18.4973 4.60806C18.5732 4.68697 18.6716 4.7406 18.779 4.76167C21.2457 5.2452 23.5211 6.5596 25.186 8.4628C25.2579 8.54513 25.3535 8.60334 25.4597 8.62953C25.5659 8.65572 25.6775 8.64862 25.7796 8.6092L28.0446 7.73427C28.5134 7.55313 29.0361 7.73767 29.2874 8.17293L29.703 8.8928C29.9546 9.3286 29.853 9.87413 29.4613 10.19L27.5747 11.7111C27.4895 11.7798 27.4275 11.873 27.3971 11.9781C27.3667 12.0832 27.3694 12.1951 27.4047 12.2986C28.2007 14.6311 28.2396 17.2549 27.4047 19.7014C27.3694 19.8049 27.3667 19.9168 27.3971 20.0219C27.4275 20.127 27.4895 20.2202 27.5747 20.2889L29.4613 21.81C29.853 22.1259 29.9547 22.6714 29.7031 23.1072L29.2874 23.8271C29.036 24.2624 28.5135 24.4468 28.0446 24.2658L25.7796 23.3909C25.6775 23.3515 25.5659 23.3444 25.4597 23.3705C25.3535 23.3967 25.258 23.4549 25.186 23.5372C23.5211 25.4404 21.2457 26.7548 18.779 27.2383C18.6716 27.2594 18.5732 27.313 18.4973 27.3919C18.4213 27.4708 18.3716 27.5712 18.3547 27.6794L17.9804 30.0754C17.9026 30.5725 17.481 30.9334 16.9778 30.9334H16.1476C15.6444 30.9334 15.2228 30.5725 15.1452 30.0754L14.7708 27.6794C14.7602 27.6099 14.7361 27.5432 14.6998 27.4831C14.6634 27.423 14.6155 27.3706 14.5589 27.3291C14.5022 27.2875 14.4379 27.2576 14.3696 27.241C14.3014 27.2243 14.2305 27.2213 14.1611 27.2322C14.0917 27.243 14.0251 27.2675 13.9651 27.3042C13.9052 27.3408 13.8531 27.389 13.8118 27.4458C13.7705 27.5027 13.7409 27.5671 13.7246 27.6355C13.7083 27.7038 13.7057 27.7747 13.7169 27.8441L14.0913 30.2401C14.2507 31.2599 15.1155 32.0001 16.1477 32.0001H16.9779C18.0101 32.0001 18.8749 31.2599 19.0343 30.2401L19.352 28.2071C21.7859 27.6517 24.0292 26.3557 25.7376 24.5181L27.6604 25.2608C28.6226 25.6324 29.6954 25.2538 30.2111 24.3605L30.6268 23.6405C31.1428 22.7466 30.9342 21.6275 30.1307 20.9796Z" fill="#2EECC0"/>
<path d="M16.5746 11.2667C16.4332 11.2667 16.2975 11.3229 16.1975 11.4229C16.0975 11.5229 16.0413 11.6586 16.0413 11.8V12.4703C14.9069 12.6721 14.0542 13.503 14.0542 14.4949C14.0542 16.0616 15.4491 16.3473 16.4676 16.5558C17.6578 16.7995 18.0283 16.9714 18.0283 17.5717C18.0283 18.1165 17.3626 18.5767 16.5746 18.5767C16.0363 18.5767 15.5422 18.3663 15.285 18.0275C15.1992 17.9155 15.0726 17.842 14.9328 17.8232C14.793 17.8043 14.6514 17.8416 14.539 17.9269C14.4267 18.0122 14.3527 18.1386 14.3332 18.2783C14.3138 18.418 14.3506 18.5598 14.4354 18.6725C14.8013 19.1544 15.3799 19.4815 16.0413 19.5967V20.2667C16.0413 20.4081 16.0975 20.5438 16.1975 20.6438C16.2975 20.7438 16.4332 20.8 16.5746 20.8C16.716 20.8 16.8517 20.7438 16.9517 20.6438C17.0517 20.5438 17.1079 20.4081 17.1079 20.2667V19.5963C18.2423 19.3946 19.095 18.5637 19.095 17.5717C19.095 16.0051 17.7001 15.7194 16.6816 15.5109C15.4914 15.2671 15.1209 15.0953 15.1209 14.495C15.1209 13.9502 15.7866 13.4899 16.5746 13.4899C17.1129 13.4899 17.607 13.7004 17.8642 14.0391C17.95 14.1512 18.0766 14.2246 18.2164 14.2435C18.3562 14.2624 18.4978 14.2251 18.6102 14.1398C18.7225 14.0545 18.7965 13.9281 18.8159 13.7884C18.8354 13.6486 18.7986 13.5069 18.7138 13.3942C18.3479 12.9123 17.7693 12.5852 17.1079 12.4699V11.8C17.1079 11.6586 17.0517 11.5229 16.9517 11.4229C16.8517 11.3229 16.716 11.2667 16.5746 11.2667Z" fill="#2EECC0"/>
<path d="M13.5268 10.2195C13.6518 10.1533 13.7454 10.0403 13.787 9.90514C13.8286 9.77002 13.8149 9.6239 13.7488 9.4989C13.6828 9.37389 13.5698 9.28023 13.4347 9.23851C13.2996 9.19679 13.1535 9.21042 13.0284 9.2764C10.5279 10.5977 8.97449 13.1741 8.97449 16C8.97449 20.1907 12.3838 23.6 16.5745 23.6C20.7652 23.6 24.1745 20.1907 24.1745 16C24.1745 11.8093 20.7652 8.4 16.5745 8.4C16.433 8.4 16.2974 8.45619 16.1974 8.55621C16.0973 8.65623 16.0412 8.79189 16.0412 8.93333C16.0412 9.07478 16.0973 9.21044 16.1974 9.31046C16.2974 9.41048 16.433 9.46667 16.5745 9.46667C20.177 9.46667 23.1078 12.3975 23.1078 16C23.1078 19.6025 20.177 22.5333 16.5745 22.5333C12.972 22.5333 10.0412 19.6025 10.0412 16C10.0412 13.5705 11.3768 11.3556 13.5268 10.2195Z" fill="#2EECC0"/>
</g>
<defs>
<clipPath id="clip0_2_147">
<rect width="32" height="32" fill="white" transform="translate(0.562744)"/>
</clipPath>
</defs>
</svg>
