<svg width="160" height="160" viewBox="0 0 160 160" fill="none" xmlns="http://www.w3.org/2000/svg">
<g clip-path="url(#clip0_6_11)">
<path d="M80 51.6129C67.1923 51.6129 56.7742 62.031 56.7742 74.8387C56.7742 87.6464 67.1923 98.0645 80 98.0645C92.8078 98.0645 103.226 87.6464 103.226 74.8387C103.226 62.031 92.8078 51.6129 80 51.6129ZM80 92.9032C70.0413 92.9032 61.9355 84.7974 61.9355 74.8387C61.9355 64.88 70.0413 56.7742 80 56.7742C89.9587 56.7742 98.0645 64.88 98.0645 74.8387C98.0645 84.7974 89.9587 92.9032 80 92.9032ZM15.4839 26.4077V51.009L35.982 38.7097L15.4839 26.4077ZM20.6452 35.5277L25.9536 38.7097L20.6452 41.8916V35.5277ZM123.871 36.129H129.032V41.2903H123.871V36.129ZM134.194 36.129H139.355V41.2903H134.194V36.129ZM144.516 36.129H149.677V41.2903H144.516V36.129Z" fill="#2EECC0"/>
<path d="M143.448 61.9355C145.099 61.9334 146.683 61.2764 147.851 60.1086C149.018 58.9407 149.675 57.3574 149.677 55.7058V51.6129H154.839C157.685 51.6129 160 49.2981 160 46.4516V30.9677C160 28.1213 157.685 25.8065 154.839 25.8065H118.71C117.386 25.8065 116.186 26.3226 115.272 27.1458C111.541 24.383 107.498 22.0686 103.226 20.2503V18.7639L99.0245 17.3832C98.6859 17.2703 98.3754 17.0863 98.1139 16.8434C97.8524 16.6006 97.6458 16.3046 97.5082 15.9753C97.3706 15.646 97.305 15.2911 97.316 14.9343C97.3269 14.5776 97.4141 14.2273 97.5716 13.9071L99.5432 9.93548L93.2903 3.68258L89.3135 5.65161C88.9942 5.81004 88.6445 5.89797 88.2882 5.90946C87.9318 5.92094 87.5772 5.85571 87.2483 5.71817C86.9194 5.58063 86.6239 5.37401 86.3818 5.1123C86.1397 4.85059 85.9567 4.5399 85.8452 4.20129L84.4619 0H75.5355L74.1548 4.20129C74.042 4.53987 73.8579 4.85036 73.6151 5.1119C73.3722 5.37344 73.0762 5.57996 72.7469 5.7176C72.4176 5.85523 72.0627 5.92078 71.7059 5.90984C71.3492 5.89891 70.999 5.81174 70.6787 5.65419L66.7097 3.68258L60.4568 9.93548L62.4284 13.9123C62.5859 14.2318 62.6732 14.5813 62.6842 14.9374C62.6953 15.2935 62.6299 15.6478 62.4924 15.9765C62.355 16.3051 62.1487 16.6005 61.8875 16.8428C61.6263 17.085 61.3162 17.2684 60.9781 17.3806L56.7742 18.7639V20.2555C52.1277 22.2333 47.7539 24.7987 43.76 27.889C39.8606 20.5213 32.1265 15.4839 23.2258 15.4839C10.4181 15.4839 0 25.9019 0 38.7097C0 51.1329 9.80903 61.2774 22.0852 61.8787C21.1322 66.133 20.6493 70.479 20.6452 74.8387C20.6452 75.7006 20.7252 76.5574 20.7613 77.4194H5.16129C2.31484 77.4194 0 79.7342 0 82.5806V103.226C0 106.072 2.31484 108.387 5.16129 108.387H31.0606C32.2968 110.186 33.6232 111.92 35.0503 113.574L0 113.628V154.914H72.2658C72.2854 156.268 72.8368 157.561 73.801 158.512C74.7651 159.464 76.0647 159.998 77.4194 160H82.5806C85.4271 160 87.7419 157.685 87.7419 154.839H95.4839C99.7523 154.839 103.226 151.365 103.226 147.097C103.226 146.077 103.017 145.11 102.658 144.217C104.298 143.778 105.747 142.811 106.783 141.465C107.818 140.12 108.382 138.472 108.387 136.774C108.381 134.863 107.663 133.024 106.374 131.613C107.532 130.332 108.223 128.698 108.335 126.975C114.153 123.807 119.404 119.694 123.874 114.805V118.71C123.874 121.556 126.188 123.871 129.035 123.871H134.196C137.043 123.871 139.357 121.556 139.357 118.71V109.388L150.769 113.195C151.824 113.542 152.947 113.635 154.045 113.464C155.143 113.294 156.185 112.866 157.086 112.216C157.986 111.565 158.72 110.71 159.227 109.721C159.733 108.732 159.998 107.638 160 106.526V84.4387C159.998 83.3271 159.732 82.2319 159.224 81.2429C158.716 80.2539 157.981 79.3994 157.08 78.7495C156.178 78.0995 155.135 77.6725 154.036 77.5037C152.937 77.3348 151.814 77.4289 150.759 77.7781L138.911 81.7265C139.174 79.4452 139.355 77.1484 139.355 74.8387C139.355 69.0477 138.534 63.4194 136.932 58L139.043 60.111C140.213 61.2754 141.796 61.931 143.448 61.9355ZM118.71 30.9677H154.839L154.844 46.4516H144.516V55.7058C144.516 56.5781 143.308 57.0761 142.692 56.4619L132.681 46.4516H118.71V30.9677ZM61.9355 22.4981L62.5935 22.2813C64.7019 21.5845 66.4026 20.0103 67.2594 17.9613C68.1161 15.9123 68.0387 13.5974 67.0503 11.6129L66.7277 10.9626L67.7394 9.95097L68.3845 10.2735C69.3673 10.761 70.4434 11.0316 71.5398 11.0672C72.6363 11.1027 73.7276 10.9022 74.7399 10.4794C75.7522 10.0566 76.6618 9.42123 77.4073 8.61636C78.1527 7.81149 78.7166 6.85588 79.0606 5.81419L79.2723 5.16129H80.7277L80.9445 5.81935C81.2861 6.86186 81.8483 7.81854 82.5928 8.62432C83.3373 9.4301 84.2466 10.0661 85.2589 10.4889C86.2712 10.9118 87.3626 11.1117 88.4591 11.075C89.5555 11.0383 90.6312 10.7658 91.6129 10.2761L92.2632 9.95355L93.2748 10.9652L92.9523 11.6103C92.4648 12.5931 92.1942 13.6692 92.1587 14.7656C92.1231 15.8621 92.3236 16.9534 92.7464 17.9657C93.1692 18.978 93.8046 19.8876 94.6094 20.6331C95.4143 21.3785 96.3699 21.9424 97.4116 22.2865L98.0645 22.4981V23.9535L97.4064 24.1703C95.2981 24.8671 93.5974 26.4413 92.7406 28.4903C91.8839 30.5394 91.9613 32.8542 92.9497 34.8387L93.2723 35.489L92.2606 36.5006L91.6155 36.1781C90.6327 35.6906 89.5566 35.42 88.4602 35.3845C87.3637 35.3489 86.2724 35.5494 85.2601 35.9722C84.2478 36.395 83.3382 37.0304 82.5927 37.8352C81.8473 38.6401 81.2834 39.5957 80.9394 40.6374L80.7277 41.2852H79.2671L79.0529 40.6348C78.7113 39.5923 78.1491 38.6356 77.4046 37.8299C76.6601 37.0241 75.7508 36.3881 74.7385 35.9652C73.7263 35.5424 72.6348 35.3425 71.5383 35.3792C70.4419 35.4159 69.3662 35.6884 68.3845 36.1781L67.7342 36.5006L66.7226 35.489L67.0452 34.8439C67.5326 33.8611 67.8033 32.785 67.8388 31.6886C67.8743 30.5921 67.6738 29.5008 67.251 28.4885C66.8282 27.4762 66.1928 26.5666 65.388 25.8211C64.5831 25.0757 63.6275 24.5118 62.5858 24.1677L61.9355 23.9535V22.4981ZM87.7419 123.933L100.645 123.871C101.33 123.873 101.985 124.146 102.468 124.631C102.951 125.117 103.221 125.774 103.219 126.458C103.218 127.142 102.944 127.798 102.459 128.281C101.974 128.764 101.317 129.034 100.632 129.032L87.7419 129.094V123.933ZM100.632 118.71L87.7419 118.772V118.71C91.5458 118.71 94.8387 116.619 96.6297 113.548H100.645C101.33 113.55 101.985 113.824 102.468 114.309C102.951 114.794 103.221 115.451 103.219 116.135C103.218 116.82 102.944 117.476 102.459 117.958C101.974 118.441 101.317 118.711 100.632 118.71ZM92.9032 108.387C92.9032 111.234 90.5884 113.548 87.7419 113.548H73.2439L72.5316 114.975C71.0995 117.822 68.7895 120.132 65.9432 121.564L68.2529 126.181C69.6947 125.444 71.0407 124.533 72.2606 123.468V149.755H54.1961V116.761C55.5728 114.22 57.6127 112.099 60.0988 110.624C62.585 109.15 65.4243 108.376 68.3148 108.387H92.9032ZM80 103.226C64.3484 103.226 51.6129 90.4903 51.6129 74.8387C51.6129 59.1871 64.3484 46.4516 80 46.4516C95.6516 46.4516 108.387 59.1871 108.387 74.8387C108.387 90.4903 95.6516 103.226 80 103.226ZM5.16129 38.7097C5.16129 28.751 13.2671 20.6452 23.2258 20.6452C33.1845 20.6452 41.2903 28.751 41.2903 38.7097C41.2903 48.6684 33.1845 56.7742 23.2258 56.7742C13.2671 56.7742 5.16129 48.6684 5.16129 38.7097ZM11.8348 92.9032L5.16129 99.5768V86.2323L11.8348 92.9032ZM15.5871 96.449C17.0606 97.4865 18.8052 98.0645 20.6452 98.0645C22.4852 98.0645 24.2297 97.4865 25.7032 96.449L32.48 103.226H8.81032L15.5871 96.449ZM36.1342 99.5819L29.4555 92.9032L36.129 86.2245L36.1342 99.5819ZM23.2258 91.8348C21.8452 93.2103 19.4452 93.2103 18.0645 91.8348L8.80774 82.5806H32.4748L23.2258 91.8348ZM37.3419 108.227C38.4648 107.956 39.4642 107.315 40.1801 106.409C40.8959 105.502 41.2869 104.381 41.2903 103.226V82.5806C41.2903 79.7342 38.9755 77.4194 36.129 77.4194H25.9226C25.8813 76.5574 25.8065 75.7006 25.8065 74.8387C25.8065 70.3226 26.3923 65.8581 27.4865 61.5252C38.2632 59.5174 46.4516 50.0594 46.4516 38.7097C46.4442 36.7622 46.191 34.8234 45.6981 32.9394C49.0896 30.1474 52.8091 27.7798 56.7742 25.889V27.6877L60.9755 29.0684C61.3141 29.1813 61.6245 29.3653 61.8861 29.6082C62.1476 29.851 62.3542 30.147 62.4918 30.4763C62.6294 30.8056 62.695 31.1606 62.684 31.5173C62.6731 31.874 62.5859 32.2243 62.4284 32.5445L60.4568 36.5161L66.7097 42.769L70.6865 40.7974C71.0046 40.6371 71.3539 40.548 71.71 40.5364C72.0661 40.5248 72.4205 40.591 72.7484 40.7303C73.2774 40.9523 73.6619 41.3755 73.9303 41.8684C58.3226 44.7381 46.4516 58.4155 46.4516 74.8387C46.4516 87.2387 53.231 98.0619 63.2594 103.868C60.5388 104.528 57.9774 105.724 55.7253 107.387C53.4732 109.05 51.5759 111.145 50.1445 113.551L42.1213 113.564C40.4128 111.892 38.8162 110.109 37.3419 108.227ZM5.16129 118.779L49.0323 118.712V149.752H5.16129V118.779ZM77.4194 154.839V118.71H82.5806V154.839H77.4194ZM95.4839 149.677H87.7419V144.578L95.6052 144.539C96.2637 144.588 96.8785 144.887 97.3223 145.376C97.7661 145.865 98.0049 146.506 97.9894 147.166C97.9738 147.826 97.705 148.455 97.2386 148.923C96.7722 149.39 96.144 149.66 95.4839 149.677ZM100.632 139.355L95.7213 139.378C95.6413 139.375 95.5639 139.355 95.4839 139.355V139.381L87.7419 139.419V134.258L100.645 134.194C101.33 134.195 101.985 134.469 102.468 134.954C102.951 135.439 103.221 136.096 103.219 136.781C103.218 137.465 102.944 138.121 102.459 138.604C101.974 139.086 101.317 139.357 100.632 139.355ZM106.872 121.894C106.717 121.684 106.551 121.483 106.374 121.29C107.613 119.917 108.387 118.119 108.387 116.129C108.387 111.861 104.914 108.387 100.645 108.387H98.0645C98.062 107.595 97.8765 106.815 97.5224 106.107C97.1683 105.398 96.6552 104.782 96.0232 104.305C106.454 98.609 113.548 87.5381 113.548 74.8387C113.548 58.4155 101.677 44.7381 86.0697 41.8684C86.3234 41.3652 86.7413 40.9638 87.2542 40.7303C87.5829 40.5923 87.9375 40.5269 88.2938 40.5384C88.6501 40.55 88.9997 40.6384 89.3187 40.7974L93.2903 42.769L99.5432 36.5161L97.5716 32.5394C97.4141 32.2198 97.3268 31.8703 97.3158 31.5142C97.3047 31.1581 97.3701 30.8038 97.5075 30.4751C97.645 30.1465 97.8513 29.8511 98.1125 29.6089C98.3737 29.3666 98.6838 29.1832 99.0219 29.071L103.226 27.6877V25.8761C106.898 27.6275 110.361 29.7883 113.548 32.3174V46.4516C113.548 49.2981 115.863 51.6129 118.71 51.6129H128.955C132.419 58.8645 134.21 66.802 134.194 74.8387C134.194 77.44 133.956 80.0258 133.59 82.5806H121.29C117.022 82.5806 113.548 86.0542 113.548 90.3226V100.645C113.548 104.914 117.022 108.387 121.29 108.387H122.552C118.233 113.846 112.911 118.431 106.872 121.894ZM121.29 103.226C120.606 103.226 119.949 102.954 119.466 102.47C118.982 101.986 118.71 101.33 118.71 100.645V90.3226C118.71 89.6381 118.982 88.9817 119.466 88.4978C119.949 88.0138 120.606 87.7419 121.29 87.7419H134.194V103.226H121.29ZM129.032 118.71V108.387H134.194V118.71H129.032ZM152.385 82.6787C153.569 82.2658 154.839 83.2181 154.839 84.4413V106.529C154.839 107.752 153.53 108.671 152.392 108.297L139.355 103.946V87.0194L152.385 82.6787Z" fill="#2EECC0"/>
<path d="M80.0002 30.9677C84.2686 30.9677 87.7422 27.4942 87.7422 23.2258C87.7422 18.9574 84.2686 15.4839 80.0002 15.4839C75.7318 15.4839 72.2583 18.9574 72.2583 23.2258C72.2583 27.4942 75.7318 30.9677 80.0002 30.9677ZM80.0002 20.6452C80.6847 20.6452 81.3411 20.9171 81.825 21.401C82.309 21.885 82.5809 22.5414 82.5809 23.2258C82.5809 23.9102 82.309 24.5666 81.825 25.0506C81.3411 25.5346 80.6847 25.8065 80.0002 25.8065C79.3158 25.8065 78.6594 25.5346 78.1754 25.0506C77.6915 24.5666 77.4196 23.9102 77.4196 23.2258C77.4196 22.5414 77.6915 21.885 78.1754 21.401C78.6594 20.9171 79.3158 20.6452 80.0002 20.6452Z" fill="#2EECC0"/>
</g>
<defs>
<clipPath id="clip0_6_11">
<rect width="160" height="160" fill="white"/>
</clipPath>
</defs>
</svg>
