<svg width="160" height="160" viewBox="0 0 160 160" fill="none" xmlns="http://www.w3.org/2000/svg">
<path d="M107.518 87.3594L107.322 86.2272C107.444 85.6841 107.509 85.1244 107.509 84.5547V76.3056C107.509 74.2784 106.716 72.3688 105.276 70.9288C103.836 69.4884 101.926 68.6953 99.8991 68.6953C98.658 68.6937 97.4355 68.9976 96.3397 69.5803C95.0409 67.2372 92.5416 65.6475 89.6784 65.6475C88.4809 65.6475 87.3472 65.9256 86.3384 66.4203C85.1169 63.8459 82.4922 62.0613 79.4581 62.0613C76.8725 62.0613 74.5841 63.3575 73.2081 65.3341C72.014 64.6002 70.6394 64.2124 69.2378 64.2141C65.0416 64.2141 61.6275 67.6278 61.6275 71.8244V74.5409C56.4581 75.6656 51.7175 79.5522 51.3231 85.4088L50.7769 93.5203C50.2094 101.95 54.9759 105.93 58.8056 109.128C61.7206 111.563 63.3719 113.058 63.3997 115.466V131.121C63.3997 131.784 63.6631 132.42 64.1319 132.889C64.6008 133.358 65.2366 133.621 65.8997 133.621H101.222C101.886 133.621 102.521 133.358 102.99 132.889C103.459 132.42 103.722 131.784 103.722 131.121V116.418C111.119 108.13 109.674 99.7922 107.518 87.3594ZM99.8991 73.695C100.591 73.695 101.244 73.9681 101.74 74.4638C102.236 74.9597 102.509 75.6134 102.509 76.3053V84.5547C102.509 84.8138 102.471 85.0678 102.397 85.31L102.396 85.3109C102.27 85.7209 102.045 86.0936 101.74 86.3959C101.245 86.8916 100.591 87.1647 99.8987 87.1647C99.2072 87.1647 98.5534 86.8916 98.0575 86.3959C97.5616 85.9003 97.2888 85.2463 97.2888 84.5544L97.2884 84.5503L97.2888 84.5463V76.3053C97.2888 74.8659 98.4597 73.695 99.8991 73.695ZM89.6781 70.6472C91.1175 70.6472 92.2888 71.8181 92.2888 73.2572V84.555C92.2884 85.9941 91.1175 87.165 89.6784 87.165C88.2394 87.165 87.0681 85.9938 87.0681 84.5547V73.2575C87.0681 71.8178 88.2391 70.6472 89.6781 70.6472ZM76.8478 69.6713C76.8478 68.2322 78.0191 67.0609 79.4581 67.0609C80.8972 67.0609 82.0684 68.2322 82.0684 69.6713V76.8353C80.7422 75.3953 78.9053 74.4334 76.8478 74.2391V69.6713ZM69.2378 69.2138C70.6769 69.2138 71.8478 70.3847 71.8478 71.8241V74.2016H66.6275V71.8241C66.6275 70.3847 67.7984 69.2138 69.2378 69.2138ZM98.7228 128.621H68.4V117.938C86.5913 117.921 95.0847 117.921 98.7228 117.927V128.621ZM100.129 112.931C99.8206 112.93 84.4588 112.923 68.0556 112.939C67.1194 109.558 64.4334 107.313 62.0106 105.29C58.4469 102.314 55.3694 99.7444 55.7656 93.8559L56.3119 85.7444C56.5841 81.7031 60.8853 79.2016 64.7144 79.2016H76.075C77.8122 79.2016 79.2253 80.6147 79.2253 82.3519C79.2253 84.0891 77.8122 85.5022 76.075 85.5022H63.8322C63.1691 85.5022 62.5333 85.7656 62.0644 86.2344C61.5956 86.7033 61.3322 87.3391 61.3322 88.0022C61.3322 88.6652 61.5956 89.3011 62.0644 89.77C62.5333 90.2388 63.1691 90.5022 63.8322 90.5022H67.0275C70.9563 90.5022 73.7153 91.2709 75.2284 92.7869C77.1506 94.7134 77.1441 97.9103 77.1378 101.002L77.1372 101.514C77.1372 102.177 77.4006 102.813 77.8694 103.282C78.3383 103.751 78.9741 104.014 79.6372 104.014C80.3002 104.014 80.9361 103.751 81.405 103.282C81.8738 102.813 82.1372 102.177 82.1372 101.514L82.1378 101.013C82.1422 98.9522 82.1462 96.4472 81.4756 94.0434C83.1932 93.5686 84.6907 92.5078 85.7084 91.045C86.9026 91.7788 88.2771 92.1665 89.6787 92.165C91.5697 92.1665 93.393 91.4612 94.7906 90.1875C96.1956 91.4653 97.9956 92.165 99.8991 92.1647C101.039 92.1647 102.142 91.9137 103.145 91.4381C104.82 101.405 105.233 107.101 100.129 112.931ZM74.6903 123.281C74.6939 123.603 74.6336 123.922 74.5129 124.221C74.3921 124.52 74.2133 124.791 73.9868 125.02C73.7603 125.249 73.4906 125.431 73.1933 125.555C72.8961 125.68 72.5771 125.743 72.255 125.743C71.9329 125.743 71.6139 125.679 71.3167 125.555C71.0194 125.431 70.7498 125.249 70.5233 125.02C70.2968 124.791 70.118 124.519 69.9973 124.221C69.8766 123.922 69.8163 123.602 69.82 123.28C69.8273 122.639 70.0871 122.027 70.543 121.576C70.9989 121.125 71.6142 120.873 72.2553 120.873C72.8964 120.873 73.5116 121.126 73.9675 121.576C74.4234 122.027 74.6831 122.64 74.6903 123.281ZM149.632 84.4919C146.168 84.4919 143.222 86.7434 142.174 89.8594H133.263C132.657 76.8059 127.336 64.9653 118.968 56.0025L125.732 49.2378C126.82 49.7825 128.02 50.0657 129.237 50.0647C133.575 50.0647 137.105 46.5353 137.105 42.1972C137.105 37.8591 133.575 34.3297 129.237 34.3297C124.899 34.3297 121.37 37.8591 121.37 42.1972C121.37 43.4563 121.669 44.6463 122.197 45.7025L115.389 52.5103C106.549 44.6509 95.0888 39.6806 82.5 39.0969V29.6431C85.6159 28.5956 87.8675 25.6494 87.8675 22.185C87.8675 17.8469 84.3381 14.3175 80 14.3175C75.6619 14.3175 72.1325 17.8469 72.1325 22.185C72.1325 25.6494 74.3841 28.5956 77.5 29.6431V39.0966C64.9112 39.6806 53.4506 44.6506 44.6109 52.5097L37.8031 45.7016C38.3479 44.6134 38.631 43.4131 38.63 42.1963C38.63 37.8581 35.1006 34.3288 30.7625 34.3288C26.4244 34.3288 22.895 37.8581 22.895 42.1963C22.895 46.5344 26.4244 50.0638 30.7625 50.0638C32.0216 50.0638 33.2112 49.765 34.2675 49.2369L41.0325 56.0019C32.6644 64.965 27.3431 76.8053 26.7375 89.8588H17.8253C16.7781 86.7428 13.8316 84.4913 10.3675 84.4913C6.02937 84.4919 2.5 88.0209 2.5 92.3591C2.5 96.6972 6.02937 100.227 10.3675 100.227C13.8316 100.227 16.7778 97.975 17.8253 94.8591H26.7375C28.0478 123.106 51.4356 145.682 80 145.682C108.564 145.682 131.952 123.106 133.263 94.8594H142.174C143.222 97.9753 146.168 100.227 149.632 100.227C153.97 100.227 157.5 96.6975 157.5 92.3594C157.5 88.0209 153.971 84.4919 149.632 84.4919ZM129.237 39.3294C130.819 39.3294 132.105 40.6156 132.105 42.1969C132.105 43.7781 130.819 45.0644 129.237 45.0644C127.656 45.0644 126.37 43.7781 126.37 42.1969C126.37 40.6156 127.656 39.3294 129.237 39.3294ZM80 19.3175C81.5812 19.3175 82.8675 20.6038 82.8675 22.185C82.8675 23.7663 81.5812 25.0525 80 25.0525C78.4188 25.0525 77.1325 23.7663 77.1325 22.185C77.1325 20.6038 78.4188 19.3175 80 19.3175ZM27.8947 42.1969C27.8947 40.6156 29.1809 39.3294 30.7622 39.3294C32.3434 39.3294 33.6297 40.6156 33.6297 42.1969C33.6297 43.7781 32.3434 45.0644 30.7622 45.0644C29.1813 45.0644 27.8947 43.7781 27.8947 42.1969ZM10.3675 95.2269C8.78625 95.2269 7.5 93.9406 7.5 92.3594C7.5 90.7781 8.78625 89.4919 10.3675 89.4919C11.9487 89.4919 13.235 90.7781 13.235 92.3594C13.235 93.9403 11.9487 95.2269 10.3675 95.2269ZM80 140.682C54.1931 140.682 33.0462 120.347 31.7409 94.8594H42.9266C43.5896 94.8594 44.2255 94.596 44.6943 94.1271C45.1632 93.6583 45.4266 93.0224 45.4266 92.3594C45.4266 91.6963 45.1632 91.0605 44.6943 90.5916C44.2255 90.1228 43.5896 89.8594 42.9266 89.8594H31.7409C32.3387 78.1837 37.1025 67.5919 44.5681 59.5384L52.0175 66.9878C52.2494 67.2203 52.5249 67.4047 52.8283 67.5304C53.1317 67.656 53.4569 67.7205 53.7853 67.72C54.2797 67.72 54.763 67.5733 55.1741 67.2986C55.5851 67.024 55.9055 66.6336 56.0948 66.1768C56.284 65.72 56.3335 65.2174 56.2371 64.7325C56.1407 64.2476 55.9027 63.8022 55.5531 63.4525L48.1509 56.0503C56.0762 49.09 66.2888 44.675 77.5 44.1009V54.745C77.5 55.408 77.7634 56.0439 78.2322 56.5128C78.7011 56.9816 79.337 57.245 80 57.245C80.663 57.245 81.2989 56.9816 81.7678 56.5128C82.2366 56.0439 82.5 55.408 82.5 54.745V44.1009C93.7116 44.675 103.924 49.09 111.849 56.0503L104.447 63.4525C104.213 63.6841 104.026 63.9599 103.899 64.2638C103.771 64.5677 103.705 64.8938 103.704 65.2234C103.703 65.553 103.767 65.8795 103.893 66.1842C104.019 66.4889 104.204 66.7657 104.437 66.9987C104.67 67.2318 104.946 67.4164 105.251 67.5421C105.556 67.6677 105.882 67.7319 106.212 67.7309C106.542 67.7299 106.868 67.6637 107.172 67.5362C107.475 67.4086 107.751 67.2223 107.983 66.9878L115.432 59.5384C122.898 67.5919 127.662 78.1841 128.259 89.8597H117.074C116.411 89.8597 115.775 90.1231 115.306 90.5919C114.837 91.0608 114.574 91.6966 114.574 92.3597C114.574 93.0227 114.837 93.6586 115.306 94.1275C115.775 94.5963 116.411 94.8597 117.074 94.8597H128.259C126.953 120.347 105.807 140.682 80 140.682ZM149.632 95.2269C148.051 95.2269 146.765 93.9406 146.765 92.3594C146.765 90.7781 148.051 89.4919 149.632 89.4919C151.213 89.4919 152.5 90.7781 152.5 92.3591C152.5 93.9403 151.214 95.2269 149.632 95.2269Z" fill="#2EECC0"/>
</svg>
