<svg width="32" height="32" viewBox="0 0 32 32" fill="none" xmlns="http://www.w3.org/2000/svg">
<g clip-path="url(#clip0_4_12)">
<path d="M1 27.502H1.76C1.812 27.65 1.8725 27.7945 1.9395 27.936L1.402 28.4735C1.30826 28.5673 1.25561 28.6944 1.25561 28.827C1.25561 28.9596 1.30826 29.0867 1.402 29.1805L2.819 30.5975C2.91459 30.6877 3.04106 30.738 3.1725 30.738C3.30394 30.738 3.43041 30.6877 3.526 30.5975L4.064 30.0595C4.2055 30.127 4.35 30.1865 4.4975 30.2385V31C4.4975 31.1326 4.55018 31.2598 4.64395 31.3536C4.73771 31.4473 4.86489 31.5 4.9975 31.5H7.0015C7.13411 31.5 7.26129 31.4473 7.35505 31.3536C7.44882 31.2598 7.5015 31.1326 7.5015 31V30.2375C7.6485 30.1855 7.793 30.1255 7.9335 30.0585L8.473 30.598C8.56676 30.6917 8.69392 30.7444 8.8265 30.7444C8.95908 30.7444 9.08624 30.6917 9.18 30.598L10.597 29.181C10.6907 29.0872 10.7434 28.9601 10.7434 28.8275C10.7434 28.6949 10.6907 28.5678 10.597 28.474L10.057 27.934C10.124 27.7934 10.1836 27.6494 10.2355 27.5025H11C11.1326 27.5025 11.2598 27.4498 11.3536 27.3561C11.4473 27.2623 11.5 27.1351 11.5 27.0025V24.9985C11.5 24.8659 11.4473 24.7387 11.3536 24.6449C11.2598 24.5512 11.1326 24.4985 11 24.4985H10.236C10.1841 24.3516 10.1245 24.2076 10.0575 24.067L10.5975 23.527C10.6912 23.4332 10.7439 23.3061 10.7439 23.1735C10.7439 23.0409 10.6912 22.9138 10.5975 22.82L9.1805 21.403C9.08491 21.3128 8.95844 21.2625 8.827 21.2625C8.69556 21.2625 8.56909 21.3128 8.4735 21.403L7.934 21.9425C7.79313 21.8755 7.64895 21.8158 7.502 21.7635V21C7.502 20.8674 7.44932 20.7402 7.35555 20.6464C7.26179 20.5527 7.13461 20.5 7.002 20.5H4.998C4.86539 20.5 4.73821 20.5527 4.64445 20.6464C4.55068 20.7402 4.498 20.8674 4.498 21V21.761C4.35051 21.8132 4.20582 21.8729 4.0645 21.94L3.5265 21.402C3.43274 21.3083 3.30558 21.2556 3.173 21.2556C3.04042 21.2556 2.91326 21.3083 2.8195 21.402L1.4025 22.819C1.30876 22.9128 1.25611 23.0399 1.25611 23.1725C1.25611 23.3051 1.30876 23.4322 1.4025 23.526L1.94 24.0635C1.87258 24.2051 1.8125 24.3502 1.76 24.498H1C0.867392 24.498 0.740215 24.5507 0.646447 24.6444C0.552678 24.7382 0.5 24.8654 0.5 24.998V27.002C0.5 27.1346 0.552678 27.2618 0.646447 27.3556C0.740215 27.4493 0.867392 27.502 1 27.502ZM1.5 25.498H2.1295C2.24033 25.498 2.348 25.4611 2.43561 25.3932C2.52322 25.3254 2.58579 25.2303 2.6135 25.123C2.69472 24.8081 2.81978 24.5061 2.985 24.226C3.04132 24.1305 3.06432 24.019 3.05038 23.9091C3.03644 23.7991 2.98636 23.6969 2.908 23.6185L2.4625 23.173L3.1725 22.463L3.618 22.909C3.6964 22.9874 3.79862 23.0374 3.90858 23.0514C4.01855 23.0653 4.13003 23.0423 4.2255 22.986C4.50549 22.8211 4.80728 22.6964 5.122 22.6155C5.22931 22.5878 5.32437 22.5252 5.39225 22.4376C5.46013 22.35 5.49697 22.2423 5.497 22.1315V21.5H6.501V22.132C6.501 22.2428 6.53777 22.3504 6.60556 22.438C6.67334 22.5256 6.76829 22.5882 6.8755 22.616C7.19002 22.6975 7.4916 22.8225 7.7715 22.9875C7.9675 23.103 8.2185 23.0715 8.379 22.9105L8.826 22.463L9.536 23.173L9.088 23.621C9.00964 23.6994 8.95956 23.8016 8.94562 23.9116C8.93168 24.0215 8.95468 24.133 9.011 24.2285C9.175 24.507 9.2995 24.808 9.381 25.124C9.40871 25.2313 9.47128 25.3264 9.55889 25.3942C9.6465 25.4621 9.75417 25.499 9.865 25.499H10.5V26.503H9.8665C9.75567 26.503 9.648 26.5399 9.56039 26.6078C9.47278 26.6756 9.41021 26.7707 9.3825 26.878C9.30132 27.1922 9.17679 27.4936 9.0125 27.7735C8.95618 27.869 8.93318 27.9805 8.94712 28.0904C8.96106 28.2004 9.01114 28.3026 9.0895 28.381L9.537 28.8285L8.827 29.5385L8.38 29.09C8.3016 29.0116 8.19938 28.9616 8.08942 28.9476C7.97945 28.9337 7.86797 28.9567 7.7725 29.013C7.49264 29.1781 7.19105 29.3031 6.8765 29.3845C6.76929 29.4123 6.67434 29.4749 6.60656 29.5625C6.53877 29.6501 6.502 29.7577 6.502 29.8685V30.5H5.498V29.869C5.49797 29.7582 5.46113 29.6505 5.39325 29.5629C5.32537 29.4753 5.23031 29.4127 5.123 29.385C4.80832 29.304 4.50655 29.1793 4.2265 29.0145C4.13098 28.9583 4.01954 28.9355 3.90962 28.9494C3.79969 28.9633 3.69749 29.0133 3.619 29.0915L3.1735 29.537L2.4635 28.827L2.9085 28.382C2.98701 28.3037 3.0372 28.2015 3.05114 28.0914C3.06509 27.9814 3.04199 27.8699 2.9855 27.7745C2.82036 27.4943 2.69531 27.1924 2.614 26.8775C2.58629 26.7702 2.52372 26.6751 2.43611 26.6073C2.3485 26.5394 2.24083 26.5025 2.13 26.5025H1.5V25.498Z" fill="#2EECC0"/>
<path d="M6 28.5C7.3785 28.5 8.5 27.3785 8.5 26C8.5 24.6215 7.3785 23.5 6 23.5C4.6215 23.5 3.5 24.6215 3.5 26C3.5 27.3785 4.6215 28.5 6 28.5ZM6 24.5C6.827 24.5 7.5 25.173 7.5 26C7.5 26.827 6.827 27.5 6 27.5C5.173 27.5 4.5 26.827 4.5 26C4.5 25.173 5.173 24.5 6 24.5ZM31.474 3.13299C31.4448 3.04584 31.3922 2.96843 31.3219 2.90924C31.2516 2.85005 31.1663 2.81139 31.0755 2.79749L29.2665 2.52149L28.453 0.787986C28.4127 0.701927 28.3488 0.629124 28.2686 0.578105C28.1885 0.527085 28.0954 0.499961 28.0004 0.499909C27.9054 0.499856 27.8123 0.526878 27.7321 0.577809C27.6519 0.62874 27.5879 0.701471 27.5475 0.787486L26.734 2.52099L24.925 2.79699C24.8341 2.81084 24.7488 2.84949 24.6784 2.90868C24.6081 2.96787 24.5554 3.04531 24.5262 3.13249C24.497 3.21967 24.4924 3.31321 24.5129 3.40283C24.5335 3.49245 24.5783 3.57469 24.6425 3.64049L25.966 4.99699L25.653 6.91899C25.6378 7.01165 25.649 7.10673 25.6853 7.19333C25.7216 7.27994 25.7815 7.35457 25.8583 7.40867C25.9351 7.46278 26.0255 7.49418 26.1193 7.49928C26.213 7.50437 26.3063 7.48296 26.3885 7.43749L28 6.54649L29.612 7.43749C29.6943 7.48255 29.7875 7.50371 29.8811 7.49859C29.9748 7.49346 30.0651 7.46225 30.142 7.40849C30.2188 7.35442 30.2787 7.27983 30.3151 7.19326C30.3514 7.10669 30.3627 7.01164 30.3475 6.91899L30.0345 4.99699L31.358 3.64049C31.4222 3.5748 31.467 3.49264 31.4875 3.40308C31.508 3.31352 31.5033 3.22005 31.474 3.13299ZM29.142 4.47999C29.0874 4.53597 29.0466 4.604 29.0231 4.6786C28.9996 4.7532 28.9939 4.83229 29.0065 4.90949L29.1945 6.06399L28.2415 5.53749C28.1674 5.49651 28.0842 5.47502 27.9995 5.47502C27.9148 5.47502 27.8316 5.49651 27.7575 5.53749L26.8045 6.06399L26.9925 4.90949C27.0051 4.83229 26.9994 4.7532 26.9759 4.6786C26.9524 4.604 26.9116 4.53597 26.857 4.47999L26.0365 3.63899L27.1475 3.46949C27.2287 3.45705 27.3055 3.42482 27.3713 3.37563C27.437 3.32645 27.4896 3.26183 27.5245 3.18749L28 2.17699L28.4745 3.18749C28.5455 3.33849 28.687 3.44399 28.8515 3.46949L29.9625 3.63899L29.142 4.47999ZM23.6885 6.53799C23.5533 6.51732 23.4152 6.52444 23.2828 6.55892C23.1505 6.59339 23.0265 6.65449 22.9185 6.73849L18.9955 9.80749C19.211 9.39299 19.3105 8.92749 19.2705 8.45049C19.2145 7.78499 18.9025 7.18149 18.392 6.75049C17.8815 6.31949 17.235 6.11399 16.569 6.16949C16.2417 6.19638 15.9229 6.28787 15.6311 6.43865C15.3393 6.58944 15.0803 6.79653 14.869 7.04799C14.4729 7.51279 14.2626 8.10766 14.2787 8.71816C14.2947 9.32866 14.536 9.91166 14.956 10.355C14.3731 10.4969 13.8615 10.8455 13.516 11.336L9.5765 16.713C9.46642 16.8683 9.40344 17.0521 9.3951 17.2423C9.38677 17.4325 9.43343 17.6211 9.5295 17.7855C9.62369 17.9508 9.7634 18.0856 9.932 18.1738C10.1006 18.262 10.291 18.2999 10.4805 18.283L11.6785 18.1815C11.8203 18.1701 11.9579 18.1282 12.082 18.0589C12.2062 17.9895 12.314 17.8942 12.398 17.7795L14.7765 14.6505L14.9565 16.7855L13.775 24.8895C13.329 24.981 12.881 25.063 12.4305 25.126L12.569 26.116C14.139 25.8964 15.6815 25.5121 17.171 24.9695C20.051 23.9195 22.353 22.408 24.128 20.8905L24.24 20.857L24.2245 20.805C25.937 19.324 27.151 17.8455 27.9065 16.791C27.9541 16.7247 27.9847 16.6478 27.9956 16.567C28.0066 16.4861 27.9976 16.4039 27.9695 16.3273C27.9413 16.2508 27.8948 16.1823 27.8341 16.1278C27.7733 16.0734 27.7002 16.0346 27.621 16.015L26.85 15.822L29.6575 14.2625L30.3205 17.2465L29.6585 17.026C29.554 16.9912 29.441 16.9918 29.337 17.0278C29.2329 17.0638 29.1436 17.1331 29.083 17.225L29 17.35C22.7145 26.9195 15.7275 29.2395 10.9725 29.5005L11.027 30.499C15.9785 30.227 23.224 27.8485 29.7055 18.0955L30.841 18.474C30.9249 18.5021 31.0148 18.5073 31.1014 18.4893C31.188 18.4712 31.2683 18.4305 31.334 18.3713C31.3997 18.312 31.4485 18.2364 31.4754 18.1521C31.5023 18.0678 31.5063 17.9778 31.487 17.8915L30.487 13.3915C30.4704 13.3153 30.4362 13.2442 30.3871 13.1836C30.338 13.1231 30.2754 13.075 30.2043 13.043C30.1332 13.0111 30.0556 12.9962 29.9778 12.9997C29.8999 13.0032 29.824 13.0248 29.756 13.063L25.256 15.563C25.1681 15.6116 25.097 15.6855 25.0518 15.7752C25.0066 15.8649 24.9894 15.966 25.0026 16.0656C25.0158 16.1651 25.0586 16.2584 25.1256 16.3332C25.1926 16.408 25.2805 16.4609 25.378 16.485L26.6505 16.803C25.8262 17.8646 24.9087 18.8506 23.909 19.749L23.0175 16.7585C22.9769 16.6325 22.9117 16.5159 22.8257 16.4153C22.7397 16.3147 22.6346 16.2322 22.5165 16.1725L20.461 15.102L20.1395 12.658L24.7175 9.16999C24.9214 9.01498 25.058 8.78758 25.099 8.53476C25.14 8.28195 25.0824 8.02303 24.938 7.81149L24.36 6.96249C24.283 6.84963 24.1837 6.75374 24.0682 6.68073C23.9527 6.60772 23.8235 6.55914 23.6885 6.53799ZM16.653 7.16649C16.8493 7.14925 17.0472 7.17118 17.235 7.23101C17.4228 7.29083 17.5968 7.38736 17.747 7.51499C17.8979 7.64176 18.0221 7.79717 18.1126 7.97225C18.203 8.14732 18.2579 8.33858 18.274 8.53499C18.3075 8.93449 18.184 9.32299 17.9255 9.62899C17.667 9.93499 17.305 10.1225 16.9055 10.156C16.5055 10.1905 16.1175 10.066 15.8115 9.80749C15.5055 9.54899 15.318 9.18699 15.2845 8.78749C15.2515 8.39117 15.3771 7.99795 15.6336 7.69407C15.8902 7.3902 16.2568 7.20046 16.653 7.16649ZM17.3325 23.8335L18.373 17.829L20.211 18.721L21.2975 21.771C20.0514 22.5949 18.7225 23.2861 17.3325 23.8335ZM19.304 12.0385C19.1615 12.147 19.088 12.3235 19.111 12.5015L19.504 15.491C19.5255 15.6525 19.624 15.794 19.769 15.869L22.063 17.055L23.079 20.4635C22.7835 20.7045 22.472 20.9435 22.148 21.1805L21.147 18.3705C21.0558 18.1384 20.881 17.949 20.657 17.8395L18.2135 16.6405C18.1437 16.6065 18.067 16.5891 17.9893 16.5897C17.9117 16.5903 17.8353 16.6089 17.766 16.644C17.6968 16.6792 17.6367 16.73 17.5906 16.7925C17.5445 16.855 17.5137 16.9274 17.5005 17.004L16.2495 24.225C15.7785 24.3815 15.3025 24.5255 14.821 24.6495L15.955 16.874C15.9605 16.836 15.9615 16.798 15.9585 16.7595L15.664 13.272C15.6557 13.1712 15.617 13.0753 15.553 12.997C15.489 12.9187 15.4027 12.8616 15.3056 12.8334C15.2085 12.8052 15.1051 12.8071 15.0091 12.8389C14.9131 12.8707 14.8291 12.9309 14.768 13.0115L11.595 17.186L10.3905 17.296L14.33 11.919C14.456 11.7387 14.6201 11.5884 14.8108 11.4786C15.0014 11.3689 15.2138 11.3024 15.433 11.284L16.9895 11.1525H16.991L18.9835 10.984C19.0805 10.9755 19.173 10.9395 19.2495 10.8795L23.5355 7.52649L24.114 8.37549L19.304 12.0385ZM2 0.999986H3V1.99999H2V0.999986ZM3 1.99999H4V2.99999H3V1.99999ZM1 1.99999H2V2.99999H1V1.99999ZM2 2.99999H3V3.99999H2V2.99999ZM6 2.49999H7V3.49999H6V2.49999ZM7 3.49999H8V4.49999H7V3.49999ZM5 3.49999H6V4.49999H5V3.49999ZM6 4.49999H7V5.49999H6V4.49999ZM29 28H30V29H29V28ZM30 29H31V30H30V29ZM28 29H29V30H28V29ZM29 30H30V31H29V30Z" fill="#2EECC0"/>
</g>
<defs>
<clipPath id="clip0_4_12">
<rect width="32" height="32" fill="white"/>
</clipPath>
</defs>
</svg>
