<svg width="160" height="160" viewBox="0 0 160 160" fill="none" xmlns="http://www.w3.org/2000/svg">
<g clip-path="url(#clip0_6_4)">
<path d="M45.425 99.3963C44.1903 98.1857 42.2081 98.2045 40.9975 99.4391C39.7869 100.674 39.8059 102.656 41.0403 103.867L49.2991 111.967L33.3556 109.049C32.699 108.929 32.0212 109.022 31.4212 109.315C30.8211 109.607 30.3302 110.084 30.0201 110.675C29.71 111.266 29.5969 111.94 29.6972 112.6C29.7976 113.26 30.1062 113.871 30.5781 114.343L45.6916 129.456C46.3028 130.068 47.1044 130.373 47.9056 130.373C48.7069 130.373 49.5081 130.068 50.1197 129.456C51.3425 128.234 51.3425 126.251 50.1197 125.029L42.1078 117.017L57.2466 119.788C58.806 120.072 60.2653 119.393 60.9641 118.059C61.6756 116.701 61.3835 115.072 60.1981 113.887L45.425 99.3963ZM90.1769 73.9719L93.571 70.5779C94.7938 69.3551 94.7938 67.3729 93.571 66.1501C92.3482 64.9276 90.3663 64.9273 89.1432 66.1501L85.7488 69.5441L82.8035 66.5991L86.6816 62.721C87.9044 61.4982 87.9044 59.5157 86.6816 58.2932C85.4585 57.0704 83.4766 57.0704 82.2538 58.2932L76.1616 64.3854C75.8708 64.6761 75.6401 65.0213 75.4828 65.4012C75.3254 65.7811 75.2444 66.1883 75.2445 66.5995C75.2445 67.0107 75.3255 67.4179 75.4829 67.7978C75.6404 68.1777 75.8711 68.5228 76.1619 68.8135L91.1929 83.8445C91.4834 84.1356 91.8285 84.3664 92.2084 84.5238C92.5884 84.6811 92.9957 84.7619 93.407 84.7613C93.8182 84.7619 94.2256 84.6811 94.6055 84.5237C94.9855 84.3663 95.3306 84.1354 95.621 83.8441C96.8438 82.6213 96.8438 80.6391 95.621 79.4163L90.1769 73.9719ZM111.432 59.1497L107.324 63.2579L104.25 60.1838L107.892 56.5419C109.115 55.3191 109.115 53.3369 107.892 52.1141C106.669 50.8913 104.687 50.8916 103.464 52.1141L99.8223 55.756L96.7482 52.6819L100.856 48.5741C102.079 47.3513 102.079 45.3691 100.856 44.1463C99.6335 42.9235 97.6516 42.9235 96.4285 44.1463L90.1066 50.4682C89.8158 50.7589 89.5851 51.1041 89.4277 51.484C89.2703 51.8639 89.1893 52.271 89.1893 52.6822C89.1893 53.0935 89.2703 53.5006 89.4277 53.8805C89.5851 54.2604 89.8158 54.6056 90.1066 54.8963L105.11 69.8998C105.401 70.1906 105.746 70.4212 106.126 70.5786C106.506 70.736 106.913 70.8169 107.325 70.8169C107.736 70.8169 108.143 70.7358 108.523 70.5784C108.903 70.421 109.248 70.1903 109.539 69.8994L115.86 63.5776C117.083 62.3548 117.083 60.3726 115.86 59.1497C114.637 57.9266 112.654 57.9269 111.432 59.1497ZM117.624 37.9535L113.983 41.5954L110.909 38.5213L115.017 34.4135C116.24 33.1907 116.24 31.2085 115.017 29.9857C113.794 28.7632 111.812 28.7629 110.589 29.9857L104.267 36.3076C103.976 36.5983 103.746 36.9434 103.588 37.3233C103.431 37.7032 103.35 38.1104 103.35 38.5216C103.35 38.9328 103.431 39.34 103.588 39.7199C103.746 40.0998 103.976 40.445 104.267 40.7357L119.271 55.7394C119.562 56.0306 119.907 56.2614 120.287 56.4188C120.667 56.5761 121.074 56.6568 121.485 56.6563C121.896 56.6568 122.304 56.576 122.684 56.4187C123.064 56.2614 123.409 56.0305 123.699 55.7394L130.021 49.4176C131.244 48.1947 131.244 46.2126 130.021 44.9897C128.799 43.7669 126.817 43.7669 125.593 44.9897L121.485 49.0979L118.411 46.0238L122.053 42.3819C123.276 41.1591 123.276 39.1769 122.053 37.9541C120.829 36.7307 118.848 36.7307 117.624 37.9535ZM56.1272 84.3091C50.7319 89.7045 50.7319 98.4835 56.1272 103.879C58.825 106.576 62.3685 107.925 65.9119 107.925C69.4557 107.925 72.9991 106.577 75.6969 103.879C81.0922 98.4835 81.0922 89.7045 75.6969 84.3091C70.3013 78.9138 61.5225 78.9138 56.1272 84.3091ZM71.2688 99.4507C68.315 102.405 63.5088 102.405 60.5547 99.4507C57.6006 96.497 57.6006 91.6907 60.5547 88.7366C62.0316 87.2595 63.9716 86.5213 65.9116 86.5213C67.8516 86.5213 69.7916 87.2598 71.2688 88.7366C74.2229 91.6907 74.2229 96.497 71.2688 99.4507Z" fill="#2DECC1"/>
<path d="M158.168 33.72L126.282 1.83437C125.099 0.651562 123.527 0 121.854 0C120.181 0 118.609 0.65125 117.426 1.83406L106.964 12.2959C97.6984 8.61562 87.5874 6.85031 77.5852 7.18031C75.8571 7.2375 74.5024 8.68469 74.5596 10.4131C74.5724 10.8243 74.6663 11.2289 74.8359 11.6037C75.0054 11.9785 75.2473 12.3162 75.5477 12.5973C75.848 12.8784 76.2009 13.0974 76.5861 13.2418C76.9714 13.3862 77.3813 13.4531 77.7924 13.4388C86.0255 13.165 94.338 14.4525 102.095 17.1659L91.809 27.4513C83.3971 25.5731 74.5987 25.7294 66.2502 27.9187C57.0608 30.3291 48.6417 35.165 41.9027 41.9037C35.1636 48.6428 30.3277 57.0622 27.9174 66.2512C25.7277 74.5994 25.5717 83.3978 27.4499 91.8097L17.158 102.102C13.3189 91.1869 12.3902 79.4869 14.4873 67.9887C16.9189 54.6584 23.2889 42.5284 32.9092 32.9094C38.3652 27.4506 44.6399 23.0262 51.5589 19.7597C53.1227 19.0212 53.7918 17.1553 53.0533 15.5916C52.3149 14.0281 50.4493 13.3594 48.8852 14.0972C41.3124 17.6728 34.447 22.5128 28.4808 28.4822C17.9567 39.0047 10.9876 52.2772 8.32671 66.8653C5.85358 80.4241 7.22952 94.2413 12.2948 106.964L1.83264 117.427C-0.608926 119.869 -0.608926 123.841 1.83264 126.283L33.7189 158.169C34.9399 159.39 36.5433 160 38.1467 160C39.7502 160 41.3536 159.39 42.5746 158.169L53.0399 147.704C61.648 151.132 70.7558 152.872 79.9462 152.872C84.3405 152.872 88.7537 152.474 93.1393 151.674C107.725 149.014 120.998 142.047 131.522 131.523C142.046 120.999 149.013 107.727 151.673 93.1406C154.146 79.5828 152.768 65.7653 147.702 53.0416L158.167 42.5759C160.609 40.1344 160.609 36.1616 158.168 33.72ZM33.9742 67.8403C36.103 59.7238 40.3755 52.2862 46.3305 46.3319C52.2849 40.3772 59.7224 36.1047 67.839 33.9759C73.8986 32.3869 80.2262 32.0137 86.413 32.8475L32.8458 86.4144C32.0117 80.2272 32.3849 73.8997 33.9742 67.8403ZM145.513 92.0172C143.083 105.345 136.714 117.476 127.095 127.096C117.475 136.715 105.345 143.084 92.0159 145.514C80.5184 147.611 68.818 146.681 57.9024 142.841L68.1918 132.552C72.0702 133.417 76.032 133.853 80.0058 133.853C84.6302 133.853 89.2565 133.263 93.7499 132.084C102.939 129.674 111.359 124.838 118.098 118.099C124.837 111.36 129.673 102.941 132.083 93.7516C134.272 85.4034 134.429 76.6047 132.55 68.1928L142.839 57.9038C146.68 68.8197 147.61 80.5197 145.513 92.0172ZM127.155 73.5887C127.989 79.7759 127.616 86.1034 126.027 92.1631C123.897 100.28 119.625 107.717 113.67 113.672C107.716 119.626 100.278 123.899 92.1621 126.028C86.1024 127.617 79.7746 127.99 73.5877 127.157L127.155 73.5887ZM153.74 38.1481L38.1467 153.741L6.26046 121.855L121.854 6.26188L153.742 38.145L153.74 38.1481Z" fill="#2DECC1"/>
<path d="M64.1699 15.3063C65.8706 15.0147 67.0131 13.3994 66.7212 11.6984C66.4293 9.99751 64.8143 8.85532 63.1134 9.14719C61.4127 9.43907 60.2702 11.0541 60.5621 12.755C60.854 14.4556 62.4693 15.5981 64.1699 15.3063Z" fill="#2DECC1"/>
</g>
<defs>
<clipPath id="clip0_6_4">
<rect width="160" height="160" fill="white"/>
</clipPath>
</defs>
</svg>
