<svg width="32" height="32" viewBox="0 0 32 32" fill="none" xmlns="http://www.w3.org/2000/svg">
<g clip-path="url(#clip0_4_7)">
<path d="M20.2508 10.842L17.7064 10.4725L16.5684 8.16628C16.5162 8.0605 16.4355 7.97143 16.3353 7.90916C16.2351 7.84688 16.1195 7.81387 16.0015 7.81387C15.8836 7.81387 15.7679 7.84688 15.6678 7.90916C15.5676 7.97143 15.4868 8.0605 15.4346 8.16628L14.2966 10.4725L11.7515 10.842C11.6347 10.8588 11.5249 10.908 11.4346 10.984C11.3443 11.06 11.2771 11.1597 11.2406 11.2719C11.204 11.3841 11.1996 11.5043 11.2278 11.6189C11.256 11.7335 11.3158 11.8379 11.4003 11.9203L13.2415 13.7151L12.8066 16.2497C12.7911 16.3404 12.7955 16.4334 12.8197 16.5223C12.8438 16.6111 12.8871 16.6936 12.9464 16.764C13.0058 16.8343 13.0798 16.8909 13.1633 16.9297C13.2467 16.9685 13.3377 16.9886 13.4297 16.9887C13.5325 16.9879 13.6336 16.9621 13.7241 16.9135L16.0002 15.7193L18.2762 16.9135C18.3805 16.9687 18.4981 16.9937 18.6159 16.9856C18.7336 16.9775 18.8467 16.9365 18.9424 16.8675C19.0381 16.7984 19.1125 16.7039 19.1573 16.5947C19.2021 16.4856 19.2154 16.366 19.1958 16.2497L18.7609 13.7151L20.6021 11.9203C20.7017 11.8231 20.7665 11.6958 20.7864 11.558C20.8361 11.2124 20.5964 10.8918 20.2508 10.842ZM17.639 13.0365C17.5652 13.1083 17.5101 13.197 17.4784 13.2949C17.4467 13.3929 17.4394 13.4971 17.4571 13.5985L17.7311 15.198L16.2945 14.4429C16.2034 14.3959 16.1021 14.3718 15.9996 14.3726C15.897 14.3735 15.7962 14.3993 15.7058 14.4478L14.2693 15.203L14.5439 13.6034C14.5617 13.502 14.5543 13.3978 14.5226 13.2999C14.4909 13.2019 14.4358 13.1132 14.362 13.0414L13.2001 11.9083L14.8059 11.6751C14.9074 11.6604 15.0037 11.6213 15.0867 11.5611C15.1697 11.5009 15.2368 11.4214 15.2822 11.3295L16.0002 9.87399L16.7181 11.3295C16.7635 11.4214 16.8306 11.5009 16.9136 11.5611C16.9966 11.6213 17.0929 11.6604 17.1944 11.6751L18.8009 11.9041L17.639 13.0365Z" fill="#2EECC0"/>
<path d="M16.0003 4.31387C11.4565 4.31387 7.77295 7.99741 7.77295 12.5412C7.77295 17.0851 11.4565 20.7686 16.0003 20.7686C20.5421 20.7635 24.2227 17.083 24.2277 12.5412C24.2277 7.99741 20.5441 4.31387 16.0003 4.31387ZM16.0003 19.5041C12.1548 19.5041 9.0374 16.3867 9.0374 12.5412C9.0374 8.69574 12.1548 5.57832 16.0003 5.57832C19.8441 5.5826 22.9589 8.69752 22.9632 12.5412C22.9632 16.3868 19.8458 19.5041 16.0003 19.5041Z" fill="#2EECC0"/>
<path d="M27.5797 14.2462L26.3968 14.6936C26.5808 15.1804 26.8099 15.786 26.7312 16.0284C26.6426 16.3009 26.1067 16.6501 25.6332 16.9584C25.0712 17.3251 24.4319 17.741 23.9929 18.3451C23.5538 18.9492 23.3466 19.6973 23.1688 20.3507C23.0284 20.8642 22.8556 21.5034 22.6315 21.6664C22.4074 21.8293 21.7583 21.7935 21.2265 21.7683C20.5473 21.736 19.7773 21.698 19.0531 21.9354C18.3506 22.163 17.7669 22.6379 17.2498 23.0545C16.8066 23.4128 16.3036 23.8188 16.0009 23.8188C15.6982 23.8188 15.1951 23.4128 14.7512 23.0531C14.2342 22.6351 13.6484 22.1617 12.9487 21.9348C12.5483 21.8048 12.0994 21.7444 11.5353 21.7444C11.2747 21.7444 11.0197 21.7564 10.7739 21.7683C10.2463 21.7936 9.59018 21.8246 9.37315 21.6665C9.15612 21.5084 8.97554 20.8628 8.83506 20.3493C8.65734 19.6953 8.45644 18.9549 8.01174 18.3437C7.56705 17.7326 6.93415 17.3244 6.37074 16.9571C5.89801 16.6487 5.36199 16.2995 5.27345 16.027C5.19476 15.7861 5.42449 15.1799 5.60856 14.6923C5.85235 14.0481 6.12767 13.3182 6.12767 12.5413C6.12767 11.7644 5.85156 11.0345 5.60785 10.3903C5.42378 9.90354 5.19476 9.29725 5.27274 9.0556C5.36128 8.78306 5.89722 8.4339 6.37074 8.12484C6.93272 7.75812 7.57126 7.34225 8.01103 6.73889C8.4508 6.13545 8.65727 5.38662 8.83506 4.73331C8.97554 4.21977 9.14834 3.58052 9.37244 3.41757C9.59653 3.25461 10.2456 3.29043 10.7739 3.31569C11.4531 3.34801 12.2238 3.38596 12.9515 3.14852C13.654 2.92093 14.237 2.44606 14.7548 2.02948C15.1945 1.66983 15.6975 1.26445 16.0002 1.26445C16.303 1.26445 16.806 1.66976 17.2492 2.02941C17.7662 2.44735 18.3521 2.92086 19.0524 3.14845C19.7774 3.38375 20.548 3.34722 21.2301 3.31561C21.7576 3.291 22.4138 3.26011 22.6308 3.4175C22.8479 3.57488 23.0249 4.21898 23.1654 4.73324C23.3431 5.38726 23.544 6.12768 23.9887 6.73882C24.4334 7.34996 25.0663 7.75884 25.6297 8.12548C26.1025 8.43383 26.6385 8.78299 26.7277 9.05553C26.8064 9.29718 26.5767 9.90339 26.3926 10.3903C26.1488 11.0344 25.8728 11.765 25.8728 12.5412C25.8728 13.3175 26.1489 14.048 26.3926 14.6922L26.9841 14.4688L27.5755 14.2454C27.35 13.6498 27.1372 13.0871 27.1372 12.5412C27.1372 11.9954 27.3479 11.4327 27.5748 10.837C27.8678 10.0643 28.1452 9.32878 27.9295 8.66499C27.7027 7.96745 26.9995 7.50941 26.3195 7.06615C25.8278 6.74374 25.3135 6.41077 25.0108 5.9949C24.708 5.57903 24.5416 4.97702 24.3849 4.4017C24.1636 3.58822 23.955 2.8197 23.3712 2.39541C22.7875 1.97112 22.0042 2.01328 21.1669 2.05259C20.5677 2.0807 19.9474 2.11017 19.4423 1.94579C18.9647 1.79054 18.4961 1.41192 18.0437 1.04592C17.4051 0.531805 16.7504 0 16.0002 0C15.25 0 14.5952 0.531805 13.956 1.0467C13.5036 1.4127 13.0351 1.79062 12.5573 1.94586C12.0523 2.10953 11.4593 2.08213 10.8328 2.05267C9.99542 2.01335 9.20449 1.97611 8.62774 2.39548C8.05098 2.81484 7.83538 3.58965 7.61407 4.40241C7.45739 4.97774 7.29587 5.57276 6.98816 5.99562C6.68045 6.41848 6.17468 6.74445 5.67948 7.06686C4.99949 7.51013 4.29631 7.96816 4.06944 8.6657C3.85376 9.32957 4.13122 10.0622 4.42416 10.8384C4.64897 11.4342 4.86179 11.9968 4.86179 12.5419C4.86179 13.0871 4.65104 13.6497 4.42416 14.2462C4.13122 15.0189 3.85376 15.7551 4.06944 16.4182C4.29631 17.1164 4.99949 17.5745 5.67948 18.0177C6.17119 18.3402 6.68544 18.6731 6.98744 19.089C7.28952 19.5049 7.45668 20.1069 7.61335 20.6822C7.7482 21.1795 7.87961 21.66 8.09458 22.0555L5.53336 28.6054C5.49364 28.7072 5.48097 28.8175 5.49656 28.9256C5.51216 29.0337 5.5555 29.1359 5.62235 29.2223C5.68921 29.3087 5.77731 29.3763 5.87805 29.4185C5.9788 29.4607 6.08877 29.4761 6.19723 29.4631L9.77981 29.0346L12.1198 31.7785C12.1909 31.8617 12.2824 31.9251 12.3854 31.9623C12.4884 31.9996 12.5993 32.0095 12.7072 31.991C12.8151 31.9725 12.9164 31.9263 13.0011 31.8569C13.0858 31.7875 13.151 31.6973 13.1904 31.5951L15.7439 25.0621C15.9139 25.0905 16.0874 25.0905 16.2574 25.0621L18.8102 31.5951C18.85 31.6969 18.9155 31.7866 19.0004 31.8555C19.0852 31.9244 19.1864 31.9702 19.2942 31.9883C19.402 32.0064 19.5126 31.9963 19.6153 31.9589C19.718 31.9215 19.8092 31.8581 19.8801 31.775L22.2201 29.0311L25.8027 29.4596C25.9108 29.4724 26.0203 29.4571 26.1208 29.4151C26.2212 29.3731 26.3091 29.3059 26.3759 29.22C26.4428 29.1341 26.4863 29.0323 26.5023 28.9247C26.5183 28.817 26.5062 28.707 26.4673 28.6054L23.905 22.0542C24.12 21.6587 24.2506 21.1782 24.3863 20.6808C24.5422 20.1055 24.7038 19.5105 25.0122 19.0876C25.3205 18.6648 25.8257 18.3388 26.3209 18.0164C27.0008 17.5731 27.7047 17.1151 27.9309 16.4175C28.1466 15.7537 27.8698 15.0217 27.5797 14.2462ZM12.3943 30.1544L10.5208 27.9563C10.4531 27.8771 10.3669 27.8158 10.2699 27.778C10.1728 27.7401 10.0679 27.7268 9.96446 27.7393L7.09553 28.0828L9.11096 22.9281C9.61322 23.0882 10.2096 23.0601 10.832 23.0307C11.0638 23.0194 11.3034 23.0082 11.5345 23.0082C11.9615 23.0082 12.2868 23.0489 12.5573 23.1367C13.0349 23.292 13.5028 23.6699 13.9559 24.0366C14.1667 24.2059 14.3774 24.3766 14.5937 24.5283L12.3943 30.1544ZM24.9047 28.0828L22.0365 27.7393C21.933 27.7269 21.828 27.7403 21.7309 27.7783C21.6339 27.8163 21.5477 27.8777 21.4801 27.957L19.6059 30.1551L17.405 24.5297C17.6214 24.3766 17.8335 24.2058 18.0428 24.038C18.4952 23.672 18.9638 23.2941 19.4415 23.1388C19.9459 22.9751 20.5381 23.0025 21.1668 23.032C21.7954 23.0615 22.3855 23.0889 22.8878 22.9294L24.9047 28.0828Z" fill="#2EECC0"/>
</g>
<defs>
<clipPath id="clip0_4_7">
<rect width="32" height="32" fill="white"/>
</clipPath>
</defs>
</svg>
