<svg width="28" height="24" viewBox="0 0 28 24" fill="none" xmlns="http://www.w3.org/2000/svg">
<path d="M27.8938 3.26556C26.8559 3.72608 25.7548 4.0285 24.6273 4.16274C25.816 3.4493 26.7047 2.32788 27.1277 1.00758C26.0118 1.6721 24.79 2.14002 23.5157 2.39091C22.658 1.47511 21.5218 0.86832 20.2836 0.664869C19.0455 0.461418 17.7748 0.6727 16.6691 1.26587C15.5634 1.85905 14.6847 2.80088 14.1695 3.94497C13.6543 5.08905 13.5315 6.3713 13.8201 7.59239C11.559 7.47705 9.34747 6.88683 7.32954 5.86015C5.30891 4.83303 3.52694 3.39234 2.09939 1.63165C1.37151 2.88693 1.14846 4.37212 1.47548 5.78584C1.80251 7.19956 2.65511 8.43592 3.8603 9.24405C2.95697 9.21504 2.07368 8.97039 1.28414 8.53054V8.60428C1.28292 9.91954 1.7366 11.1947 2.56826 12.2137C3.39992 13.2326 4.55837 13.9326 5.84721 14.1949C5.0093 14.4222 4.13062 14.4556 3.27788 14.2926C3.63944 15.4248 4.34628 16.4154 5.2993 17.1256C6.25231 17.8358 7.4037 18.23 8.59202 18.2528C6.5789 19.8361 4.09114 20.6953 1.52994 20.6917C1.07609 20.6919 0.62262 20.6655 0.171875 20.6125C2.77085 22.2879 5.79821 23.1774 8.8904 23.1743C19.3548 23.1743 25.0725 14.4872 25.0725 6.9533C25.0725 6.70818 25.0663 6.46169 25.0554 6.21657C26.1685 5.40958 27.1289 4.41077 27.8917 3.26692L27.8938 3.26556Z" fill="white"/>
</svg>
